<!--
  FullBack.svg - Arcadecord

  Copyright (C) 2022 Ken Zhou

  This file is part of Arcadecord.

  Arcadecord can not be copied and/or distributed
  without the express permission of Ken Zhou.
-->

<svg width="1260" height="1080" viewBox="0 0 1260 1080" fill="none" xmlns="http://www.w3.org/2000/svg">
<path fill-rule="evenodd" clip-rule="evenodd" d="M5 6H175V96C175 51.8172 139.183 16 95 16C50.8172 16 15 51.8172 15 96C15 140.183 50.8172 176 95 176H5V6ZM175 176H95C139.183 176 175 140.183 175 96V176Z" fill="#0010A6"/>
<path fill-rule="evenodd" clip-rule="evenodd" d="M185 6H355V96C355 51.8172 319.183 16 275 16C230.817 16 195 51.8172 195 96C195 140.183 230.817 176 275 176H185V6ZM355 176H275C319.183 176 355 140.183 355 96V176Z" fill="#0010A6"/>
<path fill-rule="evenodd" clip-rule="evenodd" d="M365 6H535V96C535 51.8172 499.183 16 455 16C410.817 16 375 51.8172 375 96C375 140.183 410.817 176 455 176H365V6ZM535 176H455C499.183 176 535 140.183 535 96V176Z" fill="#0010A6"/>
<path fill-rule="evenodd" clip-rule="evenodd" d="M545 6H715V96C715 51.8172 679.183 16 635 16C590.817 16 555 51.8172 555 96C555 140.183 590.817 176 635 176H545V6ZM715 176H635C679.183 176 715 140.183 715 96V176Z" fill="#0010A6"/>
<path fill-rule="evenodd" clip-rule="evenodd" d="M725 6H895V96C895 51.8172 859.183 16 815 16C770.817 16 735 51.8172 735 96C735 140.183 770.817 176 815 176H725V6ZM895 176H815C859.183 176 895 140.183 895 96V176Z" fill="#0010A6"/>
<path fill-rule="evenodd" clip-rule="evenodd" d="M905 6H1075V96C1075 51.8172 1039.18 16 995 16C950.817 16 915 51.8172 915 96C915 140.183 950.817 176 995 176H905V6ZM1075 176H995C1039.18 176 1075 140.183 1075 96V176Z" fill="#0010A6"/>
<path fill-rule="evenodd" clip-rule="evenodd" d="M1085 6H1255V96C1255 51.8172 1219.18 16 1175 16C1130.82 16 1095 51.8172 1095 96C1095 140.183 1130.82 176 1175 176H1085V6ZM1255 176H1175C1219.18 176 1255 140.183 1255 96V176Z" fill="#0010A6"/>
<path fill-rule="evenodd" clip-rule="evenodd" d="M1085 186H1255V276C1255 231.817 1219.18 196 1175 196C1130.82 196 1095 231.817 1095 276C1095 320.183 1130.82 356 1175 356H1085V186ZM1255 356H1175C1219.18 356 1255 320.183 1255 276V356Z" fill="#0010A6"/>
<path fill-rule="evenodd" clip-rule="evenodd" d="M905 186H1075V276C1075 231.817 1039.18 196 995 196C950.817 196 915 231.817 915 276C915 320.183 950.817 356 995 356H905V186ZM1075 356H995C1039.18 356 1075 320.183 1075 276V356Z" fill="#0010A6"/>
<path fill-rule="evenodd" clip-rule="evenodd" d="M725 186H895V276C895 231.817 859.183 196 815 196C770.817 196 735 231.817 735 276C735 320.183 770.817 356 815 356H725V186ZM895 356H815C859.183 356 895 320.183 895 276V356Z" fill="#0010A6"/>
<path fill-rule="evenodd" clip-rule="evenodd" d="M545 186H715V276C715 231.817 679.183 196 635 196C590.817 196 555 231.817 555 276C555 320.183 590.817 356 635 356H545V186ZM715 356H635C679.183 356 715 320.183 715 276V356Z" fill="#0010A6"/>
<path fill-rule="evenodd" clip-rule="evenodd" d="M365 186H535V276C535 231.817 499.183 196 455 196C410.817 196 375 231.817 375 276C375 320.183 410.817 356 455 356H365V186ZM535 356H455C499.183 356 535 320.183 535 276V356Z" fill="#0010A6"/>
<path fill-rule="evenodd" clip-rule="evenodd" d="M185 186H355V276C355 231.817 319.183 196 275 196C230.817 196 195 231.817 195 276C195 320.183 230.817 356 275 356H185V186ZM355 356H275C319.183 356 355 320.183 355 276V356Z" fill="#0010A6"/>
<path fill-rule="evenodd" clip-rule="evenodd" d="M5 186H175V276C175 231.817 139.183 196 95 196C50.8172 196 15 231.817 15 276C15 320.183 50.8172 356 95 356H5V186ZM175 356H95C139.183 356 175 320.183 175 276V356Z" fill="#0010A6"/>
<path fill-rule="evenodd" clip-rule="evenodd" d="M5 366H175V456C175 411.817 139.183 376 95 376C50.8172 376 15 411.817 15 456C15 500.183 50.8172 536 95 536H5V366ZM175 536H95C139.183 536 175 500.183 175 456V536Z" fill="#0010A6"/>
<path fill-rule="evenodd" clip-rule="evenodd" d="M185 366H355V456C355 411.817 319.183 376 275 376C230.817 376 195 411.817 195 456C195 500.183 230.817 536 275 536H185V366ZM355 536H275C319.183 536 355 500.183 355 456V536Z" fill="#0010A6"/>
<path fill-rule="evenodd" clip-rule="evenodd" d="M365 366H535V456C535 411.817 499.183 376 455 376C410.817 376 375 411.817 375 456C375 500.183 410.817 536 455 536H365V366ZM535 536H455C499.183 536 535 500.183 535 456V536Z" fill="#0010A6"/>
<path fill-rule="evenodd" clip-rule="evenodd" d="M545 366H715V456C715 411.817 679.183 376 635 376C590.817 376 555 411.817 555 456C555 500.183 590.817 536 635 536H545V366ZM715 536H635C679.183 536 715 500.183 715 456V536Z" fill="#0010A6"/>
<path fill-rule="evenodd" clip-rule="evenodd" d="M725 366H895V456C895 411.817 859.183 376 815 376C770.817 376 735 411.817 735 456C735 500.183 770.817 536 815 536H725V366ZM895 536H815C859.183 536 895 500.183 895 456V536Z" fill="#0010A6"/>
<path fill-rule="evenodd" clip-rule="evenodd" d="M905 366H1075V456C1075 411.817 1039.18 376 995 376C950.817 376 915 411.817 915 456C915 500.183 950.817 536 995 536H905V366ZM1075 536H995C1039.18 536 1075 500.183 1075 456V536Z" fill="#0010A6"/>
<path fill-rule="evenodd" clip-rule="evenodd" d="M1085 366H1255V456C1255 411.817 1219.18 376 1175 376C1130.82 376 1095 411.817 1095 456C1095 500.183 1130.82 536 1175 536H1085V366ZM1255 536H1175C1219.18 536 1255 500.183 1255 456V536Z" fill="#0010A6"/>
<path fill-rule="evenodd" clip-rule="evenodd" d="M1085 546H1255V636C1255 591.817 1219.18 556 1175 556C1130.82 556 1095 591.817 1095 636C1095 680.183 1130.82 716 1175 716H1085V546ZM1255 716H1175C1219.18 716 1255 680.183 1255 636V716Z" fill="#0010A6"/>
<path fill-rule="evenodd" clip-rule="evenodd" d="M905 546H1075V636C1075 591.817 1039.18 556 995 556C950.817 556 915 591.817 915 636C915 680.183 950.817 716 995 716H905V546ZM1075 716H995C1039.18 716 1075 680.183 1075 636V716Z" fill="#0010A6"/>
<path fill-rule="evenodd" clip-rule="evenodd" d="M725 546H895V636C895 591.817 859.183 556 815 556C770.817 556 735 591.817 735 636C735 680.183 770.817 716 815 716H725V546ZM895 716H815C859.183 716 895 680.183 895 636V716Z" fill="#0010A6"/>
<path fill-rule="evenodd" clip-rule="evenodd" d="M545 546H715V636C715 591.817 679.183 556 635 556C590.817 556 555 591.817 555 636C555 680.183 590.817 716 635 716H545V546ZM715 716H635C679.183 716 715 680.183 715 636V716Z" fill="#0010A6"/>
<path fill-rule="evenodd" clip-rule="evenodd" d="M365 546H535V636C535 591.817 499.183 556 455 556C410.817 556 375 591.817 375 636C375 680.183 410.817 716 455 716H365V546ZM535 716H455C499.183 716 535 680.183 535 636V716Z" fill="#0010A6"/>
<path fill-rule="evenodd" clip-rule="evenodd" d="M185 546H355V636C355 591.817 319.183 556 275 556C230.817 556 195 591.817 195 636C195 680.183 230.817 716 275 716H185V546ZM355 716H275C319.183 716 355 680.183 355 636V716Z" fill="#0010A6"/>
<path fill-rule="evenodd" clip-rule="evenodd" d="M5 546H175V636C175 591.817 139.183 556 95 556C50.8172 556 15 591.817 15 636C15 680.183 50.8172 716 95 716H5V546ZM175 716H95C139.183 716 175 680.183 175 636V716Z" fill="#0010A6"/>
<path fill-rule="evenodd" clip-rule="evenodd" d="M5 726H175V816C175 771.817 139.183 736 95 736C50.8172 736 15 771.817 15 816C15 860.183 50.8172 896 95 896H5V726ZM175 896H95C139.183 896 175 860.183 175 816V896Z" fill="#0010A6"/>
<path fill-rule="evenodd" clip-rule="evenodd" d="M185 726H355V816C355 771.817 319.183 736 275 736C230.817 736 195 771.817 195 816C195 860.183 230.817 896 275 896H185V726ZM355 896H275C319.183 896 355 860.183 355 816V896Z" fill="#0010A6"/>
<path fill-rule="evenodd" clip-rule="evenodd" d="M365 726H535V816C535 771.817 499.183 736 455 736C410.817 736 375 771.817 375 816C375 860.183 410.817 896 455 896H365V726ZM535 896H455C499.183 896 535 860.183 535 816V896Z" fill="#0010A6"/>
<path fill-rule="evenodd" clip-rule="evenodd" d="M545 726H715V816C715 771.817 679.183 736 635 736C590.817 736 555 771.817 555 816C555 860.183 590.817 896 635 896H545V726ZM715 896H635C679.183 896 715 860.183 715 816V896Z" fill="#0010A6"/>
<path fill-rule="evenodd" clip-rule="evenodd" d="M725 726H895V816C895 771.817 859.183 736 815 736C770.817 736 735 771.817 735 816C735 860.183 770.817 896 815 896H725V726ZM895 896H815C859.183 896 895 860.183 895 816V896Z" fill="#0010A6"/>
<path fill-rule="evenodd" clip-rule="evenodd" d="M905 726H1075V816C1075 771.817 1039.18 736 995 736C950.817 736 915 771.817 915 816C915 860.183 950.817 896 995 896H905V726ZM1075 896H995C1039.18 896 1075 860.183 1075 816V896Z" fill="#0010A6"/>
<path fill-rule="evenodd" clip-rule="evenodd" d="M1085 726H1255V816C1255 771.817 1219.18 736 1175 736C1130.82 736 1095 771.817 1095 816C1095 860.183 1130.82 896 1175 896H1085V726ZM1255 896H1175C1219.18 896 1255 860.183 1255 816V896Z" fill="#0010A6"/>
<path fill-rule="evenodd" clip-rule="evenodd" d="M1085 906H1255V996C1255 951.817 1219.18 916 1175 916C1130.82 916 1095 951.817 1095 996C1095 1040.18 1130.82 1076 1175 1076H1085V906ZM1255 1076H1175C1219.18 1076 1255 1040.18 1255 996V1076Z" fill="#0010A6"/>
<path fill-rule="evenodd" clip-rule="evenodd" d="M905 906H1075V996C1075 951.817 1039.18 916 995 916C950.817 916 915 951.817 915 996C915 1040.18 950.817 1076 995 1076H905V906ZM1075 1076H995C1039.18 1076 1075 1040.18 1075 996V1076Z" fill="#0010A6"/>
<path fill-rule="evenodd" clip-rule="evenodd" d="M725 906H895V996C895 951.817 859.183 916 815 916C770.817 916 735 951.817 735 996C735 1040.18 770.817 1076 815 1076H725V906ZM895 1076H815C859.183 1076 895 1040.18 895 996V1076Z" fill="#0010A6"/>
<path fill-rule="evenodd" clip-rule="evenodd" d="M545 906H715V996C715 951.817 679.183 916 635 916C590.817 916 555 951.817 555 996C555 1040.18 590.817 1076 635 1076H545V906ZM715 1076H635C679.183 1076 715 1040.18 715 996V1076Z" fill="#0010A6"/>
<path fill-rule="evenodd" clip-rule="evenodd" d="M365 906H535V996C535 951.817 499.183 916 455 916C410.817 916 375 951.817 375 996C375 1040.18 410.817 1076 455 1076H365V906ZM535 1076H455C499.183 1076 535 1040.18 535 996V1076Z" fill="#0010A6"/>
<path fill-rule="evenodd" clip-rule="evenodd" d="M185 906H355V996C355 951.817 319.183 916 275 916C230.817 916 195 951.817 195 996C195 1040.18 230.817 1076 275 1076H185V906ZM355 1076H275C319.183 1076 355 1040.18 355 996V1076Z" fill="#0010A6"/>
<path fill-rule="evenodd" clip-rule="evenodd" d="M5 906H175V996C175 951.817 139.183 916 95 916C50.8172 916 15 951.817 15 996C15 1040.18 50.8172 1076 95 1076H5V906ZM175 1076H95C139.183 1076 175 1040.18 175 996V1076Z" fill="#0010A6"/>
</svg>
