<!--
  RedChecker.svg - Arcadecord

  Copyright (C) 2022 Ken Zhou

  This file is part of Arcadecord.

  Arcadecord can not be copied and/or distributed
  without the express permission of Ken Zhou.
-->

<svg width="500" height="500" viewBox="0 0 500 500" fill="none" xmlns="http://www.w3.org/2000/svg">
<circle cx="250" cy="250" r="250" fill="#FF0000"/>
<circle cx="250" cy="250" r="221" fill="#FF0000"/>
<circle cx="248.5" cy="251.5" r="226.5" fill="#A70303"/>
<circle cx="248" cy="252" r="208" fill="#FF0000"/>
<path fill-rule="evenodd" clip-rule="evenodd" d="M130.407 279.123C130.407 279.127 130.408 279.131 130.408 279.135C130.408 282.831 130.929 286.529 131.972 289.175C132.643 290.876 132.935 292.435 133.945 293.992V300.004H135.079V300.757L138.874 300.767L141.431 295.97C143.678 291.757 142.338 285.861 139.125 282.232C135.505 278.143 132.952 273.87 131.515 269.505C130.24 265.628 130.407 269.797 130.407 279.123V279.123ZM368.497 269.507C360.226 294.853 315.049 314.583 259.172 316.545C254.108 316.723 245.888 316.723 240.824 316.542C225.798 316.008 211.125 314.163 197.577 311.107C192.653 309.996 184.652 309.436 179.636 310.107L139.457 315.489C137.755 315.658 135.757 314.972 134.61 313.751C134.16 313.271 133.945 313.296 133.945 313.934V327.692C133.945 327.914 133.961 328.131 133.986 328.346V328.346C133.986 331.489 137.8 333.8 141.154 333.351L177.746 328.451C183.769 327.644 193.379 328.321 199.305 329.602C211.812 332.306 225.235 333.99 238.981 334.577C245.06 334.838 254.934 334.838 261.013 334.581C314.916 332.306 358.518 313.496 368.042 289.179C369.079 286.531 369.595 282.831 369.592 279.135V279.123C369.592 269.797 369.763 265.627 368.497 269.507V269.507Z" fill="#A70303"/>
<path fill-rule="evenodd" clip-rule="evenodd" d="M238.04 194.717C183.459 197.219 139.643 216.668 131.497 241.538C130.029 246.019 130.034 253.829 131.513 258.307C132.95 262.657 135.5 266.914 139.113 270.989C142.329 274.616 143.669 280.508 141.419 284.719L134.442 297.778C134.052 298.508 133.884 299.324 133.958 300.136C134.031 300.948 134.342 301.727 134.858 302.387C135.373 303.047 136.073 303.564 136.883 303.882C137.692 304.2 138.58 304.306 139.45 304.19L179.632 298.818C184.648 298.148 192.65 298.708 197.575 299.816C211.123 302.866 225.796 304.707 240.823 305.241C245.887 305.421 254.108 305.421 259.172 305.244C315.042 303.287 360.214 283.601 368.499 258.31C369.967 253.829 369.967 246.019 368.499 241.538C360.353 216.67 316.543 197.221 261.96 194.717V249.91C261.96 250.638 261.651 251.359 261.05 252.032C260.449 252.705 259.568 253.317 258.457 253.832C257.347 254.347 256.028 254.756 254.577 255.034C253.126 255.313 251.571 255.457 250 255.457C248.43 255.457 246.874 255.313 245.423 255.034C243.972 254.756 242.654 254.347 241.543 253.832C240.432 253.317 239.552 252.705 238.951 252.032C238.35 251.359 238.04 250.638 238.04 249.91V194.717ZM321.76 241.863C324.116 241.863 326.449 242.078 328.626 242.496C330.802 242.914 332.78 243.527 334.446 244.3C336.112 245.072 337.433 245.99 338.335 246.999C339.236 248.009 339.7 249.091 339.7 250.183C339.7 252.39 337.81 254.506 334.446 256.066C331.081 257.626 326.518 258.503 321.76 258.503C317.002 258.503 312.439 257.626 309.075 256.066C305.71 254.506 303.82 252.39 303.82 250.183C303.82 249.091 304.284 248.009 305.185 246.999C306.087 245.99 307.408 245.072 309.074 244.3C310.74 243.527 312.718 242.914 314.895 242.496C317.071 242.078 319.404 241.863 321.76 241.863V241.863Z" fill="#A70303"/>
<path d="M250 187.787C269.816 187.787 285.88 172.887 285.88 154.507C285.88 136.127 269.816 121.227 250 121.227C230.184 121.227 214.12 136.127 214.12 154.507C214.12 172.887 230.184 187.787 250 187.787Z" fill="#A70303"/>
</svg>
