<svg width="100" height="100" viewBox="0 0 100 100" fill="none" xmlns="http://www.w3.org/2000/svg">
<path d="M60.4268 33.3533L71.7313 29.6815L65.3816 41.0357L63.5667 44.2812L67.1225 45.3688L78.9699 48.9926L68.2125 53.4603L64.9189 54.8282L66.8305 57.8389L73.2218 67.9054L61.5933 65.5593L58.5762 64.9505L58.045 67.9822L56.1722 78.671L49.0656 66.9451L47.2606 63.9669L44.5824 66.1928L35.8016 73.4909L37.5468 64.1727L38.2295 60.5278L34.5224 60.6214L22.8932 60.915L32.2872 52.7662L35.0082 50.4058L32.1946 48.1567L23.0644 40.8582L32.8631 40.2507L36.3197 40.0365L35.6146 36.6457L33.3697 25.8503L43.8084 32.9776L46.4037 34.7496L48.0534 32.0749L54.9328 20.921L56.5375 30.9729L57.0905 34.4369L60.4268 33.3533Z" fill="#EBC80F" stroke="#EB440F" stroke-width="6"/>
</svg>
