<svg width="400" height="100" viewBox="0 0 400 100" fill="none" xmlns="http://www.w3.org/2000/svg">
<path d="M22.5 83.5V23.5L39 17.5H105L127 11H278L300.5 23.5L378.5 28.5V69.5L300.5 77L278 89H39L22.5 83.5Z" fill="#54703F" stroke="#65884A" stroke-width="3"/>
<rect x="105" y="61.5" width="58" height="22" rx="4" fill="#91BC6E"/>
<rect x="22" y="56.6303" width="261.959" height="2" transform="rotate(-10 22 56.6303)" fill="#759B58"/>
<rect x="22" y="70.6303" width="281.47" height="2" transform="rotate(-10 22 70.6303)" fill="#759B58"/>
<rect x="112" y="65.5" width="21" height="14" rx="3" fill="#759B58"/>
<path d="M233.2 55.9197L242.801 63.176L254.565 60.1794L255.525 62.4387L245.439 69.3888L243.755 80.7713L237.752 81.9871L237.228 71.5429L234.394 74.0798L231.516 67.3021L235.309 67.0244L228.157 59.3948L233.2 55.9197Z" fill="#759B58"/>
</svg>
