<?xml version="1.0" encoding="UTF-8" standalone="no"?>
<svg
   xmlns:dc="http://purl.org/dc/elements/1.1/"
   xmlns:cc="http://creativecommons.org/ns#"
   xmlns:rdf="http://www.w3.org/1999/02/22-rdf-syntax-ns#"
   xmlns:svg="http://www.w3.org/2000/svg"
   xmlns="http://www.w3.org/2000/svg"
   xmlns:sodipodi="http://sodipodi.sourceforge.net/DTD/sodipodi-0.dtd"
   xmlns:inkscape="http://www.inkscape.org/namespaces/inkscape"
   width="300mm"
   height="300mm"
   viewBox="0 0 300 300"
   version="1.1"
   id="svg24"
   inkscape:version="1.0.1 (3bc2e813f5, 2020-09-07)"
   sodipodi:docname="arcadecordicon1.svg">
  <defs
     id="defs18">
    <inkscape:path-effect
       effect="fillet_chamfer"
       id="path-effect43"
       is_visible="true"
       lpeversion="1"
       satellites_param="F,0,0,1,0,9.525,0,1 @ F,0,0,1,0,9.525,0,1 @ F,0,0,1,0,9.525,0,1 @ F,0,0,1,0,9.525,0,1"
       unit="px"
       method="auto"
       mode="F"
       radius="36"
       chamfer_steps="1"
       flexible="false"
       use_knot_distance="true"
       apply_no_radius="true"
       apply_with_radius="true"
       only_selected="false"
       hide_knots="false" />
  </defs>
  <sodipodi:namedview
     id="base"
     pagecolor="#ffffff"
     bordercolor="#666666"
     borderopacity="1.0"
     inkscape:pageopacity="0.0"
     inkscape:pageshadow="2"
     inkscape:zoom="0.175"
     inkscape:cx="419.61214"
     inkscape:cy="879.28666"
     inkscape:document-units="mm"
     inkscape:current-layer="layer1"
     inkscape:document-rotation="0"
     showgrid="false"
     inkscape:window-width="1366"
     inkscape:window-height="705"
     inkscape:window-x="-8"
     inkscape:window-y="-8"
     inkscape:window-maximized="1" />
  <metadata
     id="metadata21">
    <rdf:RDF>
      <cc:Work
         rdf:about="">
        <dc:format>image/svg+xml</dc:format>
        <dc:type
           rdf:resource="http://purl.org/dc/dcmitype/StillImage" />
        <dc:title></dc:title>
      </cc:Work>
    </rdf:RDF>
  </metadata>
  <g
     inkscape:label="Layer 1"
     inkscape:groupmode="layer"
     id="layer1">
    <g
       style="fill:#000000"
       id="g165"
       transform="matrix(12.5,0,0,12.5,0.60476381,-0.15119081)">
      <path
         d="M 0,0 H 24 V 24 H 0 Z"
         fill="none"
         id="path151" />
      <path
         id="path153"
         style="stroke-width:47.2441"
         d="M 191.26172 93.916016 C 139.29319 93.916016 96.773436 136.43577 96.773438 188.4043 L 96.773438 1038.7988 L 285.75 849.82227 L 947.16797 849.82227 C 999.13649 849.82227 1041.6565 807.30251 1041.6562 755.33398 L 1041.6562 188.4043 C 1041.6562 136.43577 999.13649 93.916016 947.16797 93.916016 L 191.26172 93.916016 z M 252.39453 269.05469 L 884.57227 269.05469 C 923.20554 269.05469 954.81445 300.66385 954.81445 339.29688 L 954.81445 620.26367 C 954.81445 658.89674 923.20554 690.50586 884.57227 690.50586 L 252.39453 690.50586 C 213.76153 690.50586 182.1543 658.89674 182.1543 620.26367 L 182.1543 339.29688 C 182.1543 300.66385 213.76153 269.05469 252.39453 269.05469 z M 252.39453 339.29688 L 252.39453 620.26367 L 884.57227 620.26367 L 884.57227 339.29688 L 252.39453 339.29688 z M 357.75781 374.41797 L 428 374.41797 L 428 444.66016 L 498.24219 444.66016 L 498.24219 514.90039 L 428 514.90039 L 428 585.14258 L 357.75781 585.14258 L 357.75781 514.90039 L 287.51562 514.90039 L 287.51562 444.66016 L 357.75781 444.66016 L 357.75781 374.41797 z M 796.41211 374.41797 A 52.681367 52.681367 0 0 1 796.41406 374.41797 A 52.681367 52.681367 0 0 1 796.76953 374.41797 A 52.681367 52.681367 0 0 1 849.45117 427.09961 A 52.681367 52.681367 0 0 1 796.76953 479.7793 A 52.681367 52.681367 0 0 1 744.08789 427.09961 A 52.681367 52.681367 0 0 1 796.41211 374.41797 z M 656.28516 479.7793 A 52.681359 52.681359 0 0 1 708.9668 532.46094 A 52.681359 52.681359 0 0 1 656.28516 585.14258 A 52.681359 52.681359 0 0 1 603.60547 532.46094 A 52.681359 52.681359 0 0 1 656.28516 479.7793 z "
         transform="matrix(0.02116667,0,0,0.02116667,-0.0483811,0.01209526)" />
    </g>
    <g
       style="fill:#000000"
       id="g227"
       transform="matrix(7.8556052,0,0,7.8556052,113.24167,154.81905)">
      <path
         d="M 0,0 H 24 V 24 H 0 Z"
         fill="none"
         id="path207" />
    </g>
  </g>
</svg>
