<svg width="200" height="100" viewBox="0 0 200 100" fill="none" xmlns="http://www.w3.org/2000/svg">
<path d="M8 66.1716V33.8284L19.8284 22H149.391L190.45 49.5639L149.375 78H19.8284L8 66.1716Z" fill="#54703F" stroke="#759B58" stroke-width="4"/>
<rect x="78" y="34" width="26" height="32" rx="4" fill="#91BC6E"/>
<rect x="123" y="40" width="15" height="20" rx="2" fill="#759B58"/>
<rect x="126.75" y="42.5" width="26.25" height="5" rx="2" fill="#759B58"/>
<rect x="126.75" y="52.5" width="26.25" height="5" rx="2" fill="#759B58"/>
<rect width="15" height="20" rx="2" transform="matrix(1 0 0 -1 44 60)" fill="#759B58"/>
<rect width="26.25" height="5" rx="2" transform="matrix(1 0 0 -1 29 57.5)" fill="#759B58"/>
<rect width="26.25" height="5" rx="2" transform="matrix(1 0 0 -1 29 47.5)" fill="#759B58"/>
</svg>
