<!--
  bluepenguin.svg - Arcadecord

  Copyright (C) 2022 Ken Zhou

  This file is part of Arcadecord.

  Arcadecord can not be copied and/or distributed
  without the express permission of Ken Zhou.
-->

<svg width="100" height="100" viewBox="0 0 100 100" fill="none" xmlns="http://www.w3.org/2000/svg">
<path d="M23.5 80.866C23.7761 80.3877 24.3877 80.2239 24.866 80.5L37.8133 87.9751C38.2916 88.2512 38.4555 88.8628 38.1793 89.3411L34.6459 95.4612C34.2402 96.1639 33.2105 96.1163 32.8714 95.3791L31.8054 93.0617C31.6281 92.6763 31.2269 92.4447 30.8046 92.4839L27.0446 92.8325C26.6222 92.8716 26.2211 92.64 26.0438 92.2546L24.4657 88.8241C24.2884 88.4387 23.8873 88.2072 23.4649 88.2463L20.9249 88.4818C20.1169 88.5567 19.5609 87.6888 19.9666 86.9861L23.5 80.866Z" fill="#FF9900"/>
<path d="M62.82 89.346C62.5439 88.8677 62.7077 88.2562 63.186 87.98L76.1333 80.5049C76.6116 80.2288 77.2232 80.3926 77.4993 80.8709L81.0327 86.991C81.4385 87.6937 80.8824 88.5616 80.0744 88.4867L77.5344 88.2512C77.112 88.2121 76.7109 88.4436 76.5336 88.829L74.9555 92.2595C74.7783 92.6449 74.3771 92.8765 73.9547 92.8374L70.1948 92.4888C69.7724 92.4496 69.3712 92.6812 69.194 93.0666L68.1279 95.384C67.7888 96.1212 66.7591 96.1688 66.3534 95.4661L62.82 89.346Z" fill="#FF9900"/>
<g clip-path="url(#clip0_1_10)">
<rect x="8" y="8" width="85" height="85" rx="42.5" fill="#4580B7"/>
<ellipse cx="50.3284" cy="57.218" rx="21.25" ry="23.5644" transform="rotate(0.415961 50.3284 57.218)" fill="white"/>
<ellipse cx="50.1922" cy="87.7917" rx="46.2183" ry="31.0069" transform="rotate(0.415961 50.1922 87.7917)" fill="white"/>
<circle cx="42" cy="50.5" r="4.25" fill="#341900"/>
<ellipse cx="59" cy="50.5" rx="4.25" ry="4.25" fill="#341900"/>
<path d="M50.5 76.85L43.8749 60.275H57.1251L50.5 76.85Z" fill="#FF9900"/>
</g>
<defs>
<clipPath id="clip0_1_10">
<rect x="8" y="8" width="85" height="85" rx="42.5" fill="white"/>
</clipPath>
</defs>
</svg>
