<!--
  ice.svg - Arcadecord

  Copyright (C) 2022 Ken Zhou

  This file is part of Arcadecord.

  Arcadecord can not be copied and/or distributed
  without the express permission of Ken Zhou.
-->

<svg width="308" height="308" viewBox="0 0 308 308" fill="none" xmlns="http://www.w3.org/2000/svg">
<g filter="url(#filter0_d_2_16)">
<path d="M4 0H69.5L77.5 8.5L80.5 0H160L164.5 8.5L169.5 0H235.5L244.5 6L250.5 0H304V105L299.5 113.5L304 120V228L299 232.5L304 237V300H208L202 295.5L194 300H83.5L75.125 294L67.75 300H4V193L9 187.5L4 180V70L8 62.5L4 56V0Z" fill="url(#paint0_linear_2_16)"/>
</g>
<defs>
<filter id="filter0_d_2_16" x="0" y="0" width="308" height="308" filterUnits="userSpaceOnUse" color-interpolation-filters="sRGB">
<feFlood flood-opacity="0" result="BackgroundImageFix"/>
<feColorMatrix in="SourceAlpha" type="matrix" values="0 0 0 0 0 0 0 0 0 0 0 0 0 0 0 0 0 0 127 0" result="hardAlpha"/>
<feOffset dy="4"/>
<feGaussianBlur stdDeviation="2"/>
<feComposite in2="hardAlpha" operator="out"/>
<feColorMatrix type="matrix" values="0 0 0 0 0 0 0 0 0 0 0 0 0 0 0 0 0 0 0.25 0"/>
<feBlend mode="normal" in2="BackgroundImageFix" result="effect1_dropShadow_2_16"/>
<feBlend mode="normal" in="SourceGraphic" in2="effect1_dropShadow_2_16" result="shape"/>
</filter>
<linearGradient id="paint0_linear_2_16" x1="92" y1="-1.06096e-07" x2="211" y2="300" gradientUnits="userSpaceOnUse">
<stop stop-color="#FCFDFF"/>
<stop offset="1" stop-color="#E7F2FF"/>
</linearGradient>
</defs>
</svg>
