<!--
  Battleship.svg - Arcadecord

  Copyright (C) 2022 Ken Zhou

  This file is part of Arcadecord.

  Arcadecord can not be copied and/or distributed
  without the express permission of Ken Zhou.
-->

<svg width="300" height="100" viewBox="0 0 300 100" fill="none" xmlns="http://www.w3.org/2000/svg">
<path d="M14 65.3288V34.6712L84.1791 22H164.765L280.495 49.5684L164.758 78H84.1791L14 65.3288Z" fill="#54703F" stroke="#759B58" stroke-width="4"/>
<rect x="77" y="38" width="30" height="24" rx="7" fill="#91BC6E"/>
<rect x="130" y="38" width="30" height="24" rx="7" fill="#91BC6E"/>
<rect x="169" y="37" width="11" height="26" rx="3" fill="#759B58"/>
<rect x="171" y="48" width="23" height="4" rx="2" fill="#759B58"/>
<rect x="171" y="40" width="20" height="4" rx="2" fill="#759B58"/>
<rect x="171" y="56" width="20" height="4" rx="2" fill="#759B58"/>
<rect x="67" y="63" width="11" height="26" rx="3" transform="rotate(-180 67 63)" fill="#759B58"/>
<rect x="65" y="52" width="23" height="4" rx="2" transform="rotate(-180 65 52)" fill="#759B58"/>
<rect x="65" y="60" width="20" height="4" rx="2" transform="rotate(-180 65 60)" fill="#759B58"/>
<rect x="65" y="44" width="20" height="4" rx="2" transform="rotate(-180 65 44)" fill="#759B58"/>
<rect x="201" y="41" width="11" height="18" rx="3" fill="#759B58"/>
<rect x="206" y="44" width="18" height="4" rx="2" fill="#759B58"/>
<rect x="206" y="52" width="18" height="4" rx="2" fill="#759B58"/>
<rect x="114" y="41" width="9" height="18" rx="3" fill="#759B58"/>
</svg>
