<svg width="100" height="100" viewBox="0 0 100 100" fill="none" xmlns="http://www.w3.org/2000/svg">
<path d="M90.7659 50C89.9074 50.6318 88.7605 51.4332 87.3274 52.3452C83.7066 54.6494 78.2608 57.658 71.0232 60.421C56.9838 65.7807 36.1659 70.231 8.78243 66.7881C8.87986 66.509 8.98178 66.2082 9.08675 65.8869C9.77258 63.7876 10.5923 60.7991 11.1388 57.2143C12.1371 50.6666 12.2364 42.0388 8.85461 33.2028C36.2025 29.7769 56.9962 34.224 71.0232 39.579C78.2608 42.342 83.7066 45.3506 87.3274 47.6548C88.7605 48.5668 89.9074 49.3682 90.7659 50Z" fill="#54703F" stroke="#759B58" stroke-width="4"/>
<rect x="33" y="41" width="18" height="18" rx="2" fill="#91BC6E"/>
<rect x="57" y="46" width="8" height="8" rx="2" fill="#759B58"/>
<rect x="62" y="48" width="8" height="4" rx="2" fill="#759B58"/>
<rect x="20" y="46" width="8" height="8" rx="2" fill="#759B58"/>
</svg>
