<!--
  black_pieces.svg - Arcadecord

  Copyright (C) 2022 Ken Zhou

  This file is part of Arcadecord.

  Arcadecord can not be copied and/or distributed
  without the express permission of Ken Zhou.
-->

<svg width="600" height="100" viewBox="0 0 600 100" fill="none" xmlns="http://www.w3.org/2000/svg">
<mask id="path-1-outside-1_10_305" maskUnits="userSpaceOnUse" x="25" y="24" width="50" height="63" fill="black">
<rect fill="white" x="25" y="24" width="50" height="63"/>
<path fill-rule="evenodd" clip-rule="evenodd" d="M55.6443 49.5376C58.993 47.6607 61.2562 44.0774 61.2562 39.9655C61.2562 33.9094 56.3468 29 50.2907 29C44.2346 29 39.3252 33.9094 39.3252 39.9655C39.3252 44.0926 41.6052 47.6872 44.9744 49.5584L31.4394 76.1876C30.0869 78.8487 32.0202 82 35.0052 82H65.624C68.6091 82 70.5424 78.8487 69.1898 76.1876L55.6443 49.5376Z"/>
</mask>
<path fill-rule="evenodd" clip-rule="evenodd" d="M55.6443 49.5376C58.993 47.6607 61.2562 44.0774 61.2562 39.9655C61.2562 33.9094 56.3468 29 50.2907 29C44.2346 29 39.3252 33.9094 39.3252 39.9655C39.3252 44.0926 41.6052 47.6872 44.9744 49.5584L31.4394 76.1876C30.0869 78.8487 32.0202 82 35.0052 82H65.624C68.6091 82 70.5424 78.8487 69.1898 76.1876L55.6443 49.5376Z" fill="black"/>
<path d="M55.6443 49.5376L53.1996 45.176L49.0117 47.5233L51.187 51.8031L55.6443 49.5376ZM44.9744 49.5584L49.4316 51.8239L51.6155 47.5274L47.402 45.1873L44.9744 49.5584ZM31.4394 76.1876L35.8967 78.4531L35.8967 78.4531L31.4394 76.1876ZM69.1898 76.1876L73.6471 73.9221L69.1898 76.1876ZM56.2562 39.9655C56.2562 42.1959 55.0344 44.1476 53.1996 45.176L58.089 53.8992C62.9516 51.1737 66.2562 45.9588 66.2562 39.9655H56.2562ZM50.2907 34C53.5854 34 56.2562 36.6709 56.2562 39.9655H66.2562C66.2562 31.148 59.1082 24 50.2907 24V34ZM44.3252 39.9655C44.3252 36.6709 46.996 34 50.2907 34V24C41.4732 24 34.3252 31.148 34.3252 39.9655H44.3252ZM47.402 45.1873C45.5562 44.1621 44.3252 42.2041 44.3252 39.9655H34.3252C34.3252 45.9811 37.6542 51.2123 42.5467 53.9295L47.402 45.1873ZM35.8967 78.4531L49.4316 51.8239L40.5171 47.2929L26.9821 73.9221L35.8967 78.4531ZM35.0052 77C35.7515 77 36.2348 77.7879 35.8967 78.4531L26.9821 73.9221C23.9389 79.9094 28.2888 87 35.0052 87V77ZM65.624 77H35.0052V87H65.624V77ZM64.7325 78.4531C64.3944 77.7878 64.8777 77 65.624 77V87C72.3404 87 76.6903 79.9095 73.6471 73.9221L64.7325 78.4531ZM51.187 51.8031L64.7325 78.4531L73.6471 73.9221L60.1016 47.2721L51.187 51.8031Z" fill="white" mask="url(#path-1-outside-1_10_305)"/>
<mask id="path-3-outside-2_10_305" maskUnits="userSpaceOnUse" x="121.485" y="13" width="57" height="74" fill="black">
<rect fill="white" x="121.485" y="13" width="57" height="74"/>
<path fill-rule="evenodd" clip-rule="evenodd" d="M135 18C132.791 18 131 19.7909 131 22V33C131 35.2091 132.791 37 135 37H139.526C139.371 37.2694 139.245 37.5602 139.154 37.8684L127.651 76.8684C126.895 79.431 128.816 82 131.487 82H168.559C171.233 82 173.154 79.4279 172.395 76.8645L160.848 37.8645C160.757 37.5577 160.632 37.2683 160.477 37H166C168.209 37 170 35.2091 170 33V22C170 19.7909 168.209 18 166 18H159.5C158.119 18 157 19.1193 157 20.5C157 21.8807 155.881 23 154.5 23H146.5C145.119 23 144 21.8807 144 20.5C144 19.1193 142.881 18 141.5 18H135Z"/>
</mask>
<path fill-rule="evenodd" clip-rule="evenodd" d="M135 18C132.791 18 131 19.7909 131 22V33C131 35.2091 132.791 37 135 37H139.526C139.371 37.2694 139.245 37.5602 139.154 37.8684L127.651 76.8684C126.895 79.431 128.816 82 131.487 82H168.559C171.233 82 173.154 79.4279 172.395 76.8645L160.848 37.8645C160.757 37.5577 160.632 37.2683 160.477 37H166C168.209 37 170 35.2091 170 33V22C170 19.7909 168.209 18 166 18H159.5C158.119 18 157 19.1193 157 20.5C157 21.8807 155.881 23 154.5 23H146.5C145.119 23 144 21.8807 144 20.5C144 19.1193 142.881 18 141.5 18H135Z" fill="black"/>
<path d="M139.526 37L143.857 39.4992L148.184 32H139.526V37ZM139.154 37.8684L143.95 39.2829V39.2829L139.154 37.8684ZM127.651 76.8684L122.855 75.4539H122.855L127.651 76.8684ZM172.395 76.8645L177.189 75.445V75.445L172.395 76.8645ZM160.848 37.8645L156.054 39.2839L156.054 39.2839L160.848 37.8645ZM160.477 37V32H151.819L156.146 39.4992L160.477 37ZM136 22C136 22.5523 135.552 23 135 23V13C130.029 13 126 17.0294 126 22H136ZM136 33V22H126V33H136ZM135 32C135.552 32 136 32.4477 136 33H126C126 37.9706 130.029 42 135 42V32ZM139.526 32H135V42H139.526V32ZM143.95 39.2829C143.928 39.357 143.897 39.43 143.857 39.4992L135.195 34.5008C134.845 35.1088 134.562 35.7633 134.358 36.4539L143.95 39.2829ZM132.447 78.2829L143.95 39.2829L134.358 36.4539L122.855 75.4539L132.447 78.2829ZM131.487 77C132.155 77 132.636 77.6423 132.447 78.2829L122.855 75.4539C121.155 81.2197 125.476 87 131.487 87V77ZM168.559 77H131.487V87H168.559V77ZM167.6 78.2839C167.411 77.643 167.891 77 168.559 77V87C174.574 87 178.897 81.2128 177.189 75.445L167.6 78.2839ZM156.054 39.2839L167.6 78.2839L177.189 75.445L165.642 36.445L156.054 39.2839ZM156.146 39.4992C156.107 39.4303 156.076 39.3577 156.054 39.2839L165.642 36.445C165.439 35.7577 165.157 35.1062 164.808 34.5008L156.146 39.4992ZM166 32H160.477V42H166V32ZM165 33C165 32.4477 165.448 32 166 32V42C170.971 42 175 37.9706 175 33H165ZM165 22V33H175V22H165ZM166 23C165.448 23 165 22.5523 165 22H175C175 17.0294 170.971 13 166 13V23ZM159.5 23H166V13H159.5V23ZM162 20.5C162 21.8807 160.881 23 159.5 23V13C155.358 13 152 16.3579 152 20.5H162ZM154.5 28C158.642 28 162 24.6421 162 20.5H152C152 19.1193 153.119 18 154.5 18V28ZM146.5 28H154.5V18H146.5V28ZM139 20.5C139 24.6421 142.358 28 146.5 28V18C147.881 18 149 19.1193 149 20.5H139ZM141.5 23C140.119 23 139 21.8807 139 20.5H149C149 16.3579 145.642 13 141.5 13V23ZM135 23H141.5V13H135V23Z" fill="white" mask="url(#path-3-outside-2_10_305)"/>
<mask id="path-5-outside-3_10_305" maskUnits="userSpaceOnUse" x="222.652" y="12.7145" width="57" height="75" fill="black">
<rect fill="white" x="222.652" y="12.7145" width="57" height="75"/>
<path fill-rule="evenodd" clip-rule="evenodd" d="M260.382 28.9312L272.708 42.0752C274.034 43.4894 274.155 45.6511 272.995 47.2045L271.182 49.6327C270.125 51.0491 268.263 51.6034 266.603 50.9961L258.824 48.1504C258.49 48.8533 258.123 49.5203 257.725 50.1467L270.961 76.1875C272.313 78.8486 270.38 81.9999 267.395 81.9999H232.657C229.672 81.9999 227.739 78.8486 229.092 76.1875L241.118 52.527C238.015 49.2517 236 43.9646 236 37.9999C236 29.948 239.671 23.131 244.735 20.8307C245.28 20.4235 245.935 20.1506 246.655 20.0649L257.753 18.7437C260.661 18.3974 262.943 21.1918 262.023 23.9726L260.382 28.9312Z"/>
</mask>
<path fill-rule="evenodd" clip-rule="evenodd" d="M260.382 28.9312L272.708 42.0752C274.034 43.4894 274.155 45.6511 272.995 47.2045L271.182 49.6327C270.125 51.0491 268.263 51.6034 266.603 50.9961L258.824 48.1504C258.49 48.8533 258.123 49.5203 257.725 50.1467L270.961 76.1875C272.313 78.8486 270.38 81.9999 267.395 81.9999H232.657C229.672 81.9999 227.739 78.8486 229.092 76.1875L241.118 52.527C238.015 49.2517 236 43.9646 236 37.9999C236 29.948 239.671 23.131 244.735 20.8307C245.28 20.4235 245.935 20.1506 246.655 20.0649L257.753 18.7437C260.661 18.3974 262.943 21.1918 262.023 23.9726L260.382 28.9312Z" fill="black"/>
<path d="M260.382 28.9312L255.635 27.36L254.701 30.1827L256.734 32.3515L260.382 28.9312ZM272.708 42.0752L276.355 38.655H276.355L272.708 42.0752ZM272.995 47.2045L268.989 44.2131L272.995 47.2045ZM271.182 49.6327L267.176 46.6413L267.176 46.6413L271.182 49.6327ZM266.603 50.9961L264.885 55.6917L266.603 50.9961ZM258.824 48.1504L260.542 43.4548L256.263 41.8892L254.308 46.0049L258.824 48.1504ZM257.725 50.1467L253.505 47.4653L251.976 49.8712L253.268 52.4122L257.725 50.1467ZM270.961 76.1875L266.503 78.453V78.4531L270.961 76.1875ZM229.092 76.1875L233.549 78.4531L233.549 78.4531L229.092 76.1875ZM241.118 52.527L245.575 54.7925L247.173 51.6485L244.747 49.0882L241.118 52.527ZM244.735 20.8307L246.803 25.383L247.295 25.1594L247.728 24.8358L244.735 20.8307ZM246.655 20.0649L247.246 25.0298L246.655 20.0649ZM257.753 18.7437L257.162 13.7787L257.753 18.7437ZM262.023 23.9726L266.77 25.5438V25.5438L262.023 23.9726ZM256.734 32.3515L269.061 45.4954L276.355 38.655L264.029 25.511L256.734 32.3515ZM269.061 45.4954C268.729 45.1419 268.699 44.6015 268.989 44.2131L277.002 50.196C279.611 46.7007 279.339 41.8369 276.355 38.655L269.061 45.4954ZM268.989 44.2131L267.176 46.6413L275.189 52.6242L277.002 50.196L268.989 44.2131ZM267.176 46.6413C267.44 46.2872 267.906 46.1486 268.321 46.3005L264.885 55.6917C268.62 57.0582 272.809 55.8111 275.189 52.6242L267.176 46.6413ZM268.321 46.3005L260.542 43.4548L257.106 52.846L264.885 55.6917L268.321 46.3005ZM254.308 46.0049C254.058 46.5309 253.789 47.0184 253.505 47.4653L261.945 52.828C262.457 52.0222 262.923 51.1756 263.341 50.2958L254.308 46.0049ZM253.268 52.4122L266.503 78.453L275.418 73.922L262.182 47.8812L253.268 52.4122ZM266.503 78.4531C266.165 77.7878 266.649 76.9999 267.395 76.9999V86.9999C274.111 86.9999 278.461 79.9094 275.418 73.922L266.503 78.4531ZM267.395 76.9999H232.657V86.9999H267.395V76.9999ZM232.657 76.9999C233.404 76.9999 233.887 77.7878 233.549 78.4531L224.634 73.922C221.591 79.9094 225.941 86.9999 232.657 86.9999V76.9999ZM233.549 78.4531L245.575 54.7925L236.66 50.2615L224.634 73.922L233.549 78.4531ZM244.747 49.0882C242.683 46.9096 241 42.937 241 37.9999H231C231 44.9922 233.346 51.5937 237.488 55.9657L244.747 49.0882ZM241 37.9999C241 31.1027 244.158 26.5844 246.803 25.383L242.667 16.2784C235.185 19.6775 231 28.7933 231 37.9999H241ZM247.728 24.8358C247.589 24.9398 247.42 25.0091 247.246 25.0298L246.064 15.0999C244.45 15.292 242.971 15.9071 241.742 16.8256L247.728 24.8358ZM247.246 25.0298L258.344 23.7086L257.162 13.7787L246.064 15.0999L247.246 25.0298ZM258.344 23.7086C257.617 23.7952 257.046 23.0965 257.276 22.4014L266.77 25.5438C268.841 19.2871 263.706 12.9996 257.162 13.7787L258.344 23.7086ZM257.276 22.4014L255.635 27.36L265.128 30.5024L266.77 25.5438L257.276 22.4014Z" fill="white" mask="url(#path-5-outside-3_10_305)"/>
<mask id="path-7-outside-4_10_305" maskUnits="userSpaceOnUse" x="322.652" y="13" width="54" height="74" fill="black">
<rect fill="white" x="322.652" y="13" width="54" height="74"/>
<path fill-rule="evenodd" clip-rule="evenodd" d="M355.525 26.3446C355.831 25.6243 356 24.8319 356 24C356 20.6863 353.314 18 350 18C346.686 18 344 20.6863 344 24C344 24.8319 344.169 25.6243 344.475 26.3446C340.628 28.3434 338 32.3648 338 37C338 41.3543 340.319 45.1669 343.79 47.2701L329.092 76.1876C327.739 78.8487 329.672 82 332.657 82H367.395C370.38 82 372.313 78.8486 370.961 76.1876L356.25 47.2457C359.699 45.1376 362 41.3375 362 37C362 32.3648 359.372 28.3434 355.525 26.3446Z"/>
</mask>
<path fill-rule="evenodd" clip-rule="evenodd" d="M355.525 26.3446C355.831 25.6243 356 24.8319 356 24C356 20.6863 353.314 18 350 18C346.686 18 344 20.6863 344 24C344 24.8319 344.169 25.6243 344.475 26.3446C340.628 28.3434 338 32.3648 338 37C338 41.3543 340.319 45.1669 343.79 47.2701L329.092 76.1876C327.739 78.8487 329.672 82 332.657 82H367.395C370.38 82 372.313 78.8486 370.961 76.1876L356.25 47.2457C359.699 45.1376 362 41.3375 362 37C362 32.3648 359.372 28.3434 355.525 26.3446Z" fill="black"/>
<path d="M355.525 26.3446L350.923 24.3892L349.113 28.6481L353.219 30.7815L355.525 26.3446ZM344.475 26.3446L346.781 30.7815L350.887 28.6481L349.077 24.3892L344.475 26.3446ZM343.79 47.2701L348.247 49.5356L350.35 45.3989L346.381 42.994L343.79 47.2701ZM329.092 76.1876L324.634 73.9221H324.634L329.092 76.1876ZM370.961 76.1876L366.503 78.4531V78.4531L370.961 76.1876ZM356.25 47.2457L353.642 42.9797L349.699 45.3907L351.793 49.5112L356.25 47.2457ZM351 24C351 24.1479 350.971 24.2761 350.923 24.3892L360.126 28.3C360.69 26.9725 361 25.516 361 24H351ZM350 23C350.552 23 351 23.4477 351 24H361C361 17.9249 356.075 13 350 13V23ZM349 24C349 23.4477 349.448 23 350 23V13C343.925 13 339 17.9249 339 24H349ZM349.077 24.3892C349.029 24.2761 349 24.1479 349 24H339C339 25.516 339.31 26.9725 339.874 28.3L349.077 24.3892ZM342.17 21.9077C336.732 24.7328 333 30.4264 333 37H343C343 34.3032 344.524 31.954 346.781 30.7815L342.17 21.9077ZM333 37C333 43.1745 336.295 48.5746 341.198 51.5462L346.381 42.994C344.343 41.7592 343 39.5341 343 37H333ZM339.332 45.0045L324.634 73.9221L333.549 78.4531L348.247 49.5356L339.332 45.0045ZM324.634 73.9221C321.591 79.9094 325.941 87 332.657 87V77C333.404 77 333.887 77.7879 333.549 78.4531L324.634 73.9221ZM332.657 87H367.395V77H332.657V87ZM367.395 87C374.111 87 378.461 79.9094 375.418 73.9221L366.503 78.4531C366.165 77.7878 366.649 77 367.395 77V87ZM375.418 73.9221L360.708 44.9802L351.793 49.5112L366.503 78.4531L375.418 73.9221ZM358.858 51.5116C363.73 48.5331 367 43.1506 367 37H357C357 39.5245 355.667 41.742 353.642 42.9797L358.858 51.5116ZM367 37C367 30.4264 363.268 24.7328 357.83 21.9077L353.219 30.7815C355.476 31.954 357 34.3032 357 37H367Z" fill="white" mask="url(#path-7-outside-4_10_305)"/>
<rect x="351" y="37.5564" width="14.7116" height="5" rx="2.5" transform="rotate(-45 351 37.5564)" fill="white"/>
<mask id="path-10-outside-5_10_305" maskUnits="userSpaceOnUse" x="422.652" y="11.287" width="54" height="76" fill="black">
<rect fill="white" x="422.652" y="11.287" width="54" height="76"/>
<path fill-rule="evenodd" clip-rule="evenodd" d="M450.899 16.8497C450.535 16.0994 449.465 16.0994 449.101 16.8497L447.065 21.0371C446.79 21.6016 446.07 21.7767 445.567 21.401L439.054 16.5346C438.324 15.9893 437.305 16.6245 437.473 17.52L439.847 30.1842C439.865 30.2808 439.897 30.3719 439.94 30.4559C438.713 32.338 438 34.5857 438 36.9999C438 41.3542 440.319 45.1669 443.79 47.27L429.092 76.1875C427.739 78.8486 429.672 82 432.657 82H467.395C470.38 82 472.313 78.8486 470.961 76.1875L456.25 47.2456C459.699 45.1375 462 41.3375 462 36.9999C462 34.5875 461.288 32.3414 460.063 30.4601C460.106 30.3767 460.138 30.286 460.157 30.19L462.533 17.9144C462.703 17.0336 461.717 16.3912 460.98 16.9031L454.423 21.4586C453.919 21.8087 453.222 21.6265 452.953 21.0746L450.899 16.8497Z"/>
</mask>
<path fill-rule="evenodd" clip-rule="evenodd" d="M450.899 16.8497C450.535 16.0994 449.465 16.0994 449.101 16.8497L447.065 21.0371C446.79 21.6016 446.07 21.7767 445.567 21.401L439.054 16.5346C438.324 15.9893 437.305 16.6245 437.473 17.52L439.847 30.1842C439.865 30.2808 439.897 30.3719 439.94 30.4559C438.713 32.338 438 34.5857 438 36.9999C438 41.3542 440.319 45.1669 443.79 47.27L429.092 76.1875C427.739 78.8486 429.672 82 432.657 82H467.395C470.38 82 472.313 78.8486 470.961 76.1875L456.25 47.2456C459.699 45.1375 462 41.3375 462 36.9999C462 34.5875 461.288 32.3414 460.063 30.4601C460.106 30.3767 460.138 30.286 460.157 30.19L462.533 17.9144C462.703 17.0336 461.717 16.3912 460.98 16.9031L454.423 21.4586C453.919 21.8087 453.222 21.6265 452.953 21.0746L450.899 16.8497Z" fill="black"/>
<path d="M449.101 16.8497L444.604 14.6635L444.604 14.6635L449.101 16.8497ZM450.899 16.8497L446.403 19.036L446.403 19.036L450.899 16.8497ZM447.065 21.0371L442.568 18.8509L447.065 21.0371ZM445.567 21.401L448.56 17.3955V17.3955L445.567 21.401ZM439.054 16.5346L436.061 20.54L436.061 20.54L439.054 16.5346ZM437.473 17.52L442.387 16.5985L442.387 16.5985L437.473 17.52ZM439.847 30.1842L434.933 31.1057L434.933 31.1057L439.847 30.1842ZM439.94 30.4559L444.128 33.1862L445.712 30.7573L444.39 28.1768L439.94 30.4559ZM443.79 47.27L448.247 49.5355L450.35 45.3988L446.381 42.9939L443.79 47.27ZM429.092 76.1875L433.549 78.4531L433.549 78.4531L429.092 76.1875ZM470.961 76.1875L466.504 78.4531V78.4531L470.961 76.1875ZM456.25 47.2456L453.642 42.9797L449.699 45.3906L451.793 49.5112L456.25 47.2456ZM460.063 30.4601L455.623 28.1599L454.283 30.747L455.873 33.1886L460.063 30.4601ZM460.157 30.19L465.066 31.1401L465.066 31.1401L460.157 30.19ZM462.533 17.9144L467.442 18.8645L467.442 18.8645L462.533 17.9144ZM460.98 16.9031L463.833 21.0094V21.0094L460.98 16.9031ZM454.423 21.4586L451.571 17.3523L451.57 17.3523L454.423 21.4586ZM452.953 21.0746L457.45 18.8883V18.8883L452.953 21.0746ZM453.597 19.036C452.138 22.0373 447.862 22.0373 446.403 19.036L455.396 14.6635C453.207 10.1615 446.793 10.1615 444.604 14.6635L453.597 19.036ZM451.562 23.2234L453.597 19.036L444.604 14.6635L442.568 18.8509L451.562 23.2234ZM442.574 25.4064C445.591 27.6606 449.915 26.6104 451.562 23.2234L442.568 18.8509C443.666 16.5929 446.548 15.8927 448.56 17.3955L442.574 25.4064ZM436.061 20.54L442.574 25.4064L448.56 17.3955L442.047 12.5292L436.061 20.54ZM442.387 16.5985C443.059 20.1806 438.981 22.7215 436.061 20.54L442.047 12.5292C437.667 9.25706 431.551 13.0683 432.558 18.4414L442.387 16.5985ZM444.761 29.2628L442.387 16.5985L432.558 18.4414L434.933 31.1057L444.761 29.2628ZM444.39 28.1768C444.564 28.5155 444.69 28.8811 444.761 29.2628L434.933 31.1057C435.04 31.6805 435.23 32.2284 435.489 32.7349L444.39 28.1768ZM435.751 27.7255C434.011 30.3952 433 33.5871 433 36.9999H443C443 35.5843 443.415 34.2808 444.128 33.1862L435.751 27.7255ZM433 36.9999C433 43.1744 436.295 48.5746 441.198 51.5461L446.381 42.9939C444.343 41.7592 443 39.5341 443 36.9999H433ZM439.332 45.0045L424.634 73.922L433.549 78.4531L448.247 49.5355L439.332 45.0045ZM424.634 73.922C421.591 79.9094 425.941 87 432.657 87V77C433.404 77 433.887 77.7878 433.549 78.4531L424.634 73.922ZM432.657 87H467.395V77H432.657V87ZM467.395 87C474.111 87 478.461 79.9094 475.418 73.922L466.504 78.4531C466.165 77.7878 466.649 77 467.395 77V87ZM475.418 73.922L460.708 44.9801L451.793 49.5112L466.504 78.4531L475.418 73.922ZM458.858 51.5116C463.73 48.5331 467 43.1506 467 36.9999H457C457 39.5244 455.667 41.742 453.642 42.9797L458.858 51.5116ZM467 36.9999C467 33.5897 465.991 30.4 464.253 27.7315L455.873 33.1886C456.586 34.2828 457 35.5853 457 36.9999H467ZM455.248 29.2398C455.321 28.8601 455.449 28.4966 455.623 28.1599L464.502 32.7603C464.763 32.2568 464.955 31.712 465.066 31.1401L455.248 29.2398ZM457.624 16.9643L455.248 29.2398L465.066 31.1401L467.442 18.8645L457.624 16.9643ZM463.833 21.0094C460.886 23.057 456.942 20.4875 457.624 16.9643L467.442 18.8645C468.464 13.5796 462.548 9.72544 458.128 12.7968L463.833 21.0094ZM457.276 25.5648L463.833 21.0094L458.128 12.7968L451.571 17.3523L457.276 25.5648ZM448.457 23.2608C450.067 26.5723 454.252 27.6657 457.276 25.5648L451.57 17.3523C453.587 15.9517 456.377 16.6806 457.45 18.8883L448.457 23.2608ZM446.403 19.036L448.457 23.2608L457.45 18.8883L455.396 14.6635L446.403 19.036Z" fill="white" mask="url(#path-10-outside-5_10_305)"/>
<mask id="path-12-outside-6_10_305" maskUnits="userSpaceOnUse" x="522.652" y="5" width="54" height="82" fill="black">
<rect fill="white" x="522.652" y="5" width="54" height="82"/>
<path fill-rule="evenodd" clip-rule="evenodd" d="M547.5 11C547.5 10.4477 547.948 10 548.5 10H551.5C552.052 10 552.5 10.4477 552.5 11V15H557C557.552 15 558 15.4477 558 16V19C558 19.5523 557.552 20 557 20H552.5V24H559.587C560.277 24 560.759 24.6822 560.53 25.3328L559.151 29.2375C560.928 31.3301 562 34.0399 562 37C562 41.3376 559.699 45.1376 556.25 47.2457L570.961 76.1876C572.313 78.8487 570.38 82 567.395 82H532.657C529.672 82 527.739 78.8487 529.092 76.1876L543.79 47.2701C540.319 45.1669 538 41.3543 538 37C538 34.0399 539.072 31.3301 540.849 29.2375L539.47 25.3328C539.241 24.6822 539.723 24 540.413 24H547.5V20H543C542.448 20 542 19.5523 542 19V16C542 15.4477 542.448 15 543 15H547.5V11Z"/>
</mask>
<path fill-rule="evenodd" clip-rule="evenodd" d="M547.5 11C547.5 10.4477 547.948 10 548.5 10H551.5C552.052 10 552.5 10.4477 552.5 11V15H557C557.552 15 558 15.4477 558 16V19C558 19.5523 557.552 20 557 20H552.5V24H559.587C560.277 24 560.759 24.6822 560.53 25.3328L559.151 29.2375C560.928 31.3301 562 34.0399 562 37C562 41.3376 559.699 45.1376 556.25 47.2457L570.961 76.1876C572.313 78.8487 570.38 82 567.395 82H532.657C529.672 82 527.739 78.8487 529.092 76.1876L543.79 47.2701C540.319 45.1669 538 41.3543 538 37C538 34.0399 539.072 31.3301 540.849 29.2375L539.47 25.3328C539.241 24.6822 539.723 24 540.413 24H547.5V20H543C542.448 20 542 19.5523 542 19V16C542 15.4477 542.448 15 543 15H547.5V11Z" fill="black"/>
<path d="M552.5 15H547.5V20H552.5V15ZM552.5 20V15H547.5V20H552.5ZM552.5 24H547.5V29H552.5V24ZM560.53 25.3328L555.815 23.6687L555.815 23.6687L560.53 25.3328ZM559.151 29.2375L554.437 27.5734L553.48 30.2832L555.34 32.4737L559.151 29.2375ZM556.25 47.2457L553.642 42.9798L549.699 45.3907L551.793 49.5112L556.25 47.2457ZM570.961 76.1876L566.504 78.4531L570.961 76.1876ZM529.092 76.1876L524.634 73.9221H524.634L529.092 76.1876ZM543.79 47.2701L548.247 49.5356L550.35 45.3989L546.381 42.994L543.79 47.2701ZM540.849 29.2375L544.66 32.4737L546.52 30.2832L545.563 27.5734L540.849 29.2375ZM539.47 25.3328L534.755 26.9969H534.755L539.47 25.3328ZM547.5 24V29H552.5V24H547.5ZM547.5 20H552.5V15H547.5V20ZM547.5 15V20H552.5V15H547.5ZM548.5 5C545.186 5 542.5 7.68629 542.5 11H552.5C552.5 13.2091 550.709 15 548.5 15V5ZM551.5 5H548.5V15H551.5V5ZM557.5 11C557.5 7.68629 554.814 5 551.5 5V15C549.291 15 547.5 13.2091 547.5 11H557.5ZM557.5 15V11H547.5V15H557.5ZM552.5 20H557V10H552.5V20ZM557 20C554.791 20 553 18.2091 553 16H563C563 12.6863 560.314 10 557 10V20ZM553 16V19H563V16H553ZM553 19C553 16.7909 554.791 15 557 15V25C560.314 25 563 22.3137 563 19H553ZM557 15H552.5V25H557V15ZM557.5 24V20H547.5V24H557.5ZM559.587 19H552.5V29H559.587V19ZM565.245 26.9969C566.622 23.0932 563.726 19 559.587 19V29C556.827 29 554.896 26.2712 555.815 23.6687L565.245 26.9969ZM563.866 30.9016L565.245 26.9969L555.815 23.6687L554.437 27.5734L563.866 30.9016ZM567 37C567 32.8105 565.478 28.9636 562.963 26.0013L555.34 32.4737C556.378 33.6965 557 35.2692 557 37H567ZM558.858 51.5117C563.73 48.5331 567 43.1506 567 37H557C557 39.5245 555.667 41.742 553.642 42.9798L558.858 51.5117ZM575.418 73.9221L560.708 44.9802L551.793 49.5112L566.504 78.4531L575.418 73.9221ZM567.395 87C574.111 87 578.461 79.9095 575.418 73.9221L566.504 78.4531C566.165 77.7879 566.649 77 567.395 77V87ZM532.657 87H567.395V77H532.657V87ZM524.634 73.9221C521.591 79.9095 525.941 87 532.657 87V77C533.404 77 533.887 77.7879 533.549 78.4531L524.634 73.9221ZM539.332 45.0045L524.634 73.9221L533.549 78.4531L548.247 49.5356L539.332 45.0045ZM533 37C533 43.1745 536.295 48.5746 541.198 51.5462L546.381 42.994C544.343 41.7592 543 39.5342 543 37H533ZM537.037 26.0013C534.522 28.9636 533 32.8105 533 37H543C543 35.2692 543.622 33.6965 544.66 32.4737L537.037 26.0013ZM534.755 26.9969L536.134 30.9016L545.563 27.5734L544.185 23.6687L534.755 26.9969ZM540.413 19C536.274 19 533.378 23.0932 534.755 26.9969L544.185 23.6687C545.104 26.2712 543.173 29 540.413 29V19ZM547.5 19H540.413V29H547.5V19ZM542.5 20V24H552.5V20H542.5ZM547.5 15H543V25H547.5V15ZM543 15C545.209 15 547 16.7909 547 19H537C537 22.3137 539.686 25 543 25V15ZM547 19V16H537V19H547ZM547 16C547 18.2091 545.209 20 543 20V10C539.686 10 537 12.6863 537 16H547ZM543 20H547.5V10H543V20ZM542.5 11V15H552.5V11H542.5Z" fill="white" mask="url(#path-12-outside-6_10_305)"/>
</svg>
