<!--
  board.svg - Arcadecord

  Copyright (C) 2022 Ken Zhou

  This file is part of Arcadecord.

  Arcadecord can not be copied and/or distributed
  without the express permission of Ken Zhou.
-->

<svg width="800" height="800" viewBox="0 0 800 800" fill="none" xmlns="http://www.w3.org/2000/svg">
<rect width="800" height="800" fill="#FFDAA2"/>
<rect x="100" width="100" height="100" fill="#865E38"/>
<rect x="300" width="100" height="100" fill="#865E38"/>
<rect x="500" width="100" height="100" fill="#865E38"/>
<rect x="700" width="100" height="100" fill="#865E38"/>
<rect y="100" width="100" height="100" fill="#865E38"/>
<rect x="200" y="100" width="100" height="100" fill="#865E38"/>
<rect x="400" y="100" width="100" height="100" fill="#865E38"/>
<rect x="600" y="100" width="100" height="100" fill="#865E38"/>
<rect x="100" y="200" width="100" height="100" fill="#865E38"/>
<rect x="300" y="200" width="100" height="100" fill="#865E38"/>
<rect x="500" y="200" width="100" height="100" fill="#865E38"/>
<rect x="700" y="200" width="100" height="100" fill="#865E38"/>
<rect y="300" width="100" height="100" fill="#865E38"/>
<rect x="200" y="300" width="100" height="100" fill="#865E38"/>
<rect x="400" y="300" width="100" height="100" fill="#865E38"/>
<rect x="600" y="300" width="100" height="100" fill="#865E38"/>
<rect x="100" y="400" width="100" height="100" fill="#865E38"/>
<rect x="300" y="400" width="100" height="100" fill="#865E38"/>
<rect x="500" y="400" width="100" height="100" fill="#865E38"/>
<rect x="700" y="400" width="100" height="100" fill="#865E38"/>
<rect y="500" width="100" height="100" fill="#865E38"/>
<rect x="200" y="500" width="100" height="100" fill="#865E38"/>
<rect x="400" y="500" width="100" height="100" fill="#865E38"/>
<rect x="600" y="500" width="100" height="100" fill="#865E38"/>
<rect x="100" y="600" width="100" height="100" fill="#865E38"/>
<rect x="300" y="600" width="100" height="100" fill="#865E38"/>
<rect x="500" y="600" width="100" height="100" fill="#865E38"/>
<rect x="700" y="600" width="100" height="100" fill="#865E38"/>
<rect y="700" width="100" height="100" fill="#865E38"/>
<rect x="200" y="700" width="100" height="100" fill="#865E38"/>
<rect x="400" y="700" width="100" height="100" fill="#865E38"/>
<rect x="600" y="700" width="100" height="100" fill="#865E38"/>
</svg>
