<svg width="100" height="100" viewBox="0 0 100 100" fill="none" xmlns="http://www.w3.org/2000/svg">
<rect x="50" y="50" width="43" height="43" fill="#FFE921"/>
<rect x="4" y="7" width="43" height="43" fill="#FFE921"/>
<rect x="7" y="50" width="43" height="43" fill="#FF2222"/>
<path fill-rule="evenodd" clip-rule="evenodd" d="M100 10C100 4.47715 95.5228 0 90 0H10C4.47715 0 0 4.47716 0 10V90C0 95.5229 4.47716 100 10 100H90C95.5229 100 100 95.5228 100 90V10ZM45 27.5C45 37.165 37.165 45 27.5 45C17.835 45 10 37.165 10 27.5C10 17.835 17.835 10 27.5 10C37.165 10 45 17.835 45 27.5ZM90 27.5C90 37.165 82.165 45 72.5 45C62.835 45 55 37.165 55 27.5C55 17.835 62.835 10 72.5 10C82.165 10 90 17.835 90 27.5ZM27.5 90C37.165 90 45 82.165 45 72.5C45 62.835 37.165 55 27.5 55C17.835 55 10 62.835 10 72.5C10 82.165 17.835 90 27.5 90ZM90 72.5C90 82.165 82.165 90 72.5 90C62.835 90 55 82.165 55 72.5C55 62.835 62.835 55 72.5 55C82.165 55 90 62.835 90 72.5Z" fill="#1A059B"/>
</svg>
