<!--
  chess.svg - Arcadecord

  Copyright (C) 2022 Ken Zhou

  This file is part of Arcadecord.

  Arcadecord can not be copied and/or distributed
  without the express permission of Ken Zhou.
-->

<svg width="100" height="100" viewBox="0 0 100 100" fill="none" xmlns="http://www.w3.org/2000/svg">
<rect width="100" height="100" rx="10" fill="#FFDAA1"/>
<rect x="50" width="50" height="50" fill="#865E38"/>
<rect y="50" width="50" height="50" fill="#865E38"/>
<mask id="path-4-outside-1_147_184" maskUnits="userSpaceOnUse" x="25" y="24" width="50" height="63" fill="black">
<rect fill="white" x="25" y="24" width="50" height="63"/>
<path fill-rule="evenodd" clip-rule="evenodd" d="M55.6443 49.5376C58.993 47.6607 61.2562 44.0774 61.2562 39.9655C61.2562 33.9094 56.3468 29 50.2907 29C44.2346 29 39.3252 33.9094 39.3252 39.9655C39.3252 44.0926 41.6052 47.6872 44.9744 49.5584L31.4394 76.1876C30.0869 78.8487 32.0202 82 35.0052 82H65.624C68.6091 82 70.5424 78.8487 69.1898 76.1876L55.6443 49.5376Z"/>
</mask>
<path fill-rule="evenodd" clip-rule="evenodd" d="M55.6443 49.5376C58.993 47.6607 61.2562 44.0774 61.2562 39.9655C61.2562 33.9094 56.3468 29 50.2907 29C44.2346 29 39.3252 33.9094 39.3252 39.9655C39.3252 44.0926 41.6052 47.6872 44.9744 49.5584L31.4394 76.1876C30.0869 78.8487 32.0202 82 35.0052 82H65.624C68.6091 82 70.5424 78.8487 69.1898 76.1876L55.6443 49.5376Z" fill="white"/>
<path d="M55.6443 49.5376L53.1996 45.176L49.0117 47.5233L51.187 51.8031L55.6443 49.5376ZM44.9744 49.5584L49.4316 51.8239L51.6155 47.5274L47.402 45.1873L44.9744 49.5584ZM31.4394 76.1876L35.8967 78.4531L35.8967 78.4531L31.4394 76.1876ZM69.1898 76.1876L73.6471 73.9221L73.6471 73.9221L69.1898 76.1876ZM56.2562 39.9655C56.2562 42.1959 55.0344 44.1476 53.1996 45.176L58.089 53.8992C62.9516 51.1737 66.2562 45.9588 66.2562 39.9655H56.2562ZM50.2907 34C53.5854 34 56.2562 36.6709 56.2562 39.9655H66.2562C66.2562 31.148 59.1082 24 50.2907 24V34ZM44.3252 39.9655C44.3252 36.6709 46.996 34 50.2907 34V24C41.4732 24 34.3252 31.148 34.3252 39.9655H44.3252ZM47.402 45.1873C45.5562 44.1621 44.3252 42.2041 44.3252 39.9655H34.3252C34.3252 45.9811 37.6542 51.2123 42.5467 53.9295L47.402 45.1873ZM35.8967 78.4531L49.4316 51.8239L40.5171 47.2929L26.9821 73.9221L35.8967 78.4531ZM35.0052 77C35.7515 77 36.2348 77.7879 35.8967 78.4531L26.9821 73.9221C23.9389 79.9094 28.2888 87 35.0052 87V77ZM65.624 77H35.0052V87H65.624V77ZM64.7325 78.4531C64.3944 77.7878 64.8777 77 65.624 77V87C72.3404 87 76.6903 79.9095 73.6471 73.9221L64.7325 78.4531ZM51.187 51.8031L64.7325 78.4531L73.6471 73.9221L60.1016 47.2721L51.187 51.8031Z" fill="black" mask="url(#path-4-outside-1_147_184)"/>
</svg>
