<svg width="100" height="100" viewBox="0 0 100 100" fill="none" xmlns="http://www.w3.org/2000/svg">
<g clip-path="url(#clip0_148_204)">
<rect width="100" height="100" rx="10" fill="#CCF0FF"/>
<circle cx="44" cy="44" r="32" fill="#232323"/>
<circle cx="86" cy="92" r="32" fill="#232323"/>
<path d="M52.8155 52.8155L65.6771 57.5453L76.4652 37.1281L74.2368 54.6051L94.2233 38.5922L78.2104 58.5787L95.6875 56.3504L75.2702 67.1385L80 80L67.1385 75.2702L56.3504 95.6875L58.5787 78.2104L38.5922 94.2233L54.6051 74.2368L37.1281 76.4652L57.5454 65.6771L52.8155 52.8155Z" fill="#FF7527"/>
<path d="M59.3833 59.3833L66.0301 61.8277L71.6054 51.2761L70.4538 60.3082L80.7828 52.0328L72.5073 62.3617L81.5394 61.2101L70.9878 66.7854L73.4322 73.4322L66.7854 70.9878L61.2101 81.5394L62.3617 72.5073L52.0328 80.7828L60.3082 70.4538L51.2761 71.6054L61.8277 66.0301L59.3833 59.3833Z" fill="#FFE927"/>
</g>
<defs>
<clipPath id="clip0_148_204">
<rect width="100" height="100" rx="10" fill="white"/>
</clipPath>
</defs>
</svg>
