<!--
  seabattle.svg - Arcadecord

  Copyright (C) 2022 Ken Zhou

  This file is part of Arcadecord.

  Arcadecord can not be copied and/or distributed
  without the express permission of Ken Zhou.
-->

<svg width="100" height="100" viewBox="0 0 100 100" fill="none" xmlns="http://www.w3.org/2000/svg">
<g clip-path="url(#clip0_145_191)">
<rect width="100" height="100" rx="10" fill="#3D78CF"/>
<path d="M-0.800268 -6.65835C-1.16402 -7.59808 -0.0667056 -8.42497 0.736356 -7.81629L16.5856 4.19683C17.1 4.58671 17.8435 4.39442 18.1043 3.80406L26.1423 -14.3867C26.5496 -15.3084 27.9102 -15.1172 28.0476 -14.1189L30.7602 5.58272C30.8482 6.22212 31.5099 6.61189 32.1118 6.3789L50.6583 -0.800208C51.5981 -1.16396 52.4249 -0.0666478 51.8163 0.736413L39.8031 16.5856C39.4133 17.1 39.6055 17.8435 40.1959 18.1044L58.3867 26.1423C59.3084 26.5496 59.1172 27.9102 58.1189 28.0477L38.4172 30.7602C37.7779 30.8483 37.3881 31.51 37.6211 32.1119L44.8002 50.6584C45.1639 51.5981 44.0666 52.425 43.2636 51.8163L27.4143 39.8032C26.9 39.4133 26.1565 39.6056 25.8956 40.196L17.8576 58.3867C17.4503 59.3084 16.0897 59.1172 15.9523 58.119L13.2397 38.4173C13.1517 37.7779 12.49 37.3881 11.8881 37.6211L-6.65841 44.8002C-7.59814 45.164 -8.42503 44.0667 -7.81635 43.2636L4.19677 27.4144C4.58665 26.9 4.39437 26.1565 3.804 25.8956L-14.3868 17.8577C-15.3085 17.4504 -15.1172 16.0898 -14.119 15.9523L5.58266 13.2398C6.22206 13.1518 6.61183 12.4901 6.37884 11.8882L-0.800268 -6.65835Z" fill="#FF4D00"/>
<path d="M8.8288 6.11979C8.46504 5.18006 9.56236 4.35317 10.3654 4.96186L18.3483 11.0126C18.8627 11.4024 19.6062 11.2102 19.867 10.6198L23.9156 1.45756C24.3228 0.535857 25.6834 0.727082 25.8209 1.72534L27.1871 11.6486C27.2752 12.288 27.9369 12.6777 28.5388 12.4447L37.8802 8.82881C38.8199 8.46505 39.6468 9.56237 39.0381 10.3654L32.9874 18.3483C32.5975 18.8627 32.7898 19.6062 33.3802 19.867L42.5424 23.9156C43.4641 24.3228 43.2729 25.6835 42.2746 25.8209L32.3514 27.1871C31.712 27.2752 31.3222 27.9369 31.5552 28.5388L35.1712 37.8802C35.5349 38.8199 34.4376 39.6468 33.6346 39.0381L25.6517 32.9874C25.1373 32.5975 24.3938 32.7898 24.1329 33.3802L20.0844 42.5424C19.6771 43.4641 18.3165 43.2729 18.1791 42.2747L16.8128 32.3514C16.7248 31.712 16.0631 31.3223 15.4612 31.5552L6.11978 35.1712C5.18005 35.5349 4.35316 34.4376 4.96185 33.6346L11.0126 25.6517C11.4024 25.1373 11.2102 24.3938 10.6198 24.133L1.45755 20.0844C0.535849 19.6772 0.727073 18.3165 1.72533 18.1791L11.6486 16.8129C12.288 16.7248 12.6777 16.0631 12.4447 15.4612L8.8288 6.11979Z" fill="#FFE600"/>
<line y1="77" x2="100" y2="77" stroke="white" stroke-width="6"/>
<line x1="77" y1="100" x2="77" stroke="white" stroke-width="6"/>
</g>
<defs>
<clipPath id="clip0_145_191">
<rect width="100" height="100" rx="10" fill="white"/>
</clipPath>
</defs>
</svg>
