<svg width="800" height="800" viewBox="0 0 800 800" fill="none" xmlns="http://www.w3.org/2000/svg">
<rect x="0.5" y="0.5" width="79" height="79" stroke="black" stroke-opacity="0.5"/>
<rect x="80.5" y="0.5" width="79" height="79" stroke="black" stroke-opacity="0.5"/>
<rect x="160.5" y="0.5" width="79" height="79" stroke="black" stroke-opacity="0.5"/>
<rect x="240.5" y="0.5" width="79" height="79" stroke="black" stroke-opacity="0.5"/>
<rect x="320.5" y="0.5" width="79" height="79" stroke="black" stroke-opacity="0.5"/>
<rect x="400.5" y="0.5" width="79" height="79" stroke="black" stroke-opacity="0.5"/>
<rect x="480.5" y="0.5" width="79" height="79" stroke="black" stroke-opacity="0.5"/>
<rect x="560.5" y="0.5" width="79" height="79" stroke="black" stroke-opacity="0.5"/>
<rect x="640.5" y="0.5" width="79" height="79" stroke="black" stroke-opacity="0.5"/>
<rect x="720.5" y="0.5" width="79" height="79" stroke="black" stroke-opacity="0.5"/>
<rect x="720.5" y="80.5" width="79" height="79" stroke="black" stroke-opacity="0.5"/>
<rect x="720.5" y="160.5" width="79" height="79" stroke="black" stroke-opacity="0.5"/>
<rect x="720.5" y="240.5" width="79" height="79" stroke="black" stroke-opacity="0.5"/>
<rect x="720.5" y="320.5" width="79" height="79" stroke="black" stroke-opacity="0.5"/>
<rect x="720.5" y="400.5" width="79" height="79" stroke="black" stroke-opacity="0.5"/>
<rect x="720.5" y="480.5" width="79" height="79" stroke="black" stroke-opacity="0.5"/>
<rect x="720.5" y="560.5" width="79" height="79" stroke="black" stroke-opacity="0.5"/>
<rect x="720.5" y="640.5" width="79" height="79" stroke="black" stroke-opacity="0.5"/>
<rect x="720.5" y="720.5" width="79" height="79" stroke="black" stroke-opacity="0.5"/>
<rect x="640.5" y="720.5" width="79" height="79" stroke="black" stroke-opacity="0.5"/>
<rect x="560.5" y="720.5" width="79" height="79" stroke="black" stroke-opacity="0.5"/>
<rect x="480.5" y="720.5" width="79" height="79" stroke="black" stroke-opacity="0.5"/>
<rect x="400.5" y="720.5" width="79" height="79" stroke="black" stroke-opacity="0.5"/>
<rect x="320.5" y="720.5" width="79" height="79" stroke="black" stroke-opacity="0.5"/>
<rect x="240.5" y="720.5" width="79" height="79" stroke="black" stroke-opacity="0.5"/>
<rect x="160.5" y="720.5" width="79" height="79" stroke="black" stroke-opacity="0.5"/>
<rect x="80.5" y="720.5" width="79" height="79" stroke="black" stroke-opacity="0.5"/>
<rect x="0.5" y="720.5" width="79" height="79" stroke="black" stroke-opacity="0.5"/>
<rect x="0.5" y="640.5" width="79" height="79" stroke="black" stroke-opacity="0.5"/>
<rect x="0.5" y="560.5" width="79" height="79" stroke="black" stroke-opacity="0.5"/>
<rect x="0.5" y="480.5" width="79" height="79" stroke="black" stroke-opacity="0.5"/>
<rect x="0.5" y="400.5" width="79" height="79" stroke="black" stroke-opacity="0.5"/>
<rect x="0.5" y="320.5" width="79" height="79" stroke="black" stroke-opacity="0.5"/>
<rect x="0.5" y="240.5" width="79" height="79" stroke="black" stroke-opacity="0.5"/>
<rect x="0.5" y="160.5" width="79" height="79" stroke="black" stroke-opacity="0.5"/>
<rect x="0.5" y="80.5" width="79" height="79" stroke="black" stroke-opacity="0.5"/>
<rect x="80.5" y="80.5" width="79" height="79" stroke="black" stroke-opacity="0.5"/>
<rect x="160.5" y="80.5" width="79" height="79" stroke="black" stroke-opacity="0.5"/>
<rect x="240.5" y="80.5" width="79" height="79" stroke="black" stroke-opacity="0.5"/>
<rect x="320.5" y="80.5" width="79" height="79" stroke="black" stroke-opacity="0.5"/>
<rect x="400.5" y="80.5" width="79" height="79" stroke="black" stroke-opacity="0.5"/>
<rect x="480.5" y="80.5" width="79" height="79" stroke="black" stroke-opacity="0.5"/>
<rect x="560.5" y="80.5" width="79" height="79" stroke="black" stroke-opacity="0.5"/>
<rect x="640.5" y="80.5" width="79" height="79" stroke="black" stroke-opacity="0.5"/>
<rect x="640.5" y="160.5" width="79" height="79" stroke="black" stroke-opacity="0.5"/>
<rect x="640.5" y="240.5" width="79" height="79" stroke="black" stroke-opacity="0.5"/>
<rect x="640.5" y="320.5" width="79" height="79" stroke="black" stroke-opacity="0.5"/>
<rect x="640.5" y="400.5" width="79" height="79" stroke="black" stroke-opacity="0.5"/>
<rect x="640.5" y="480.5" width="79" height="79" stroke="black" stroke-opacity="0.5"/>
<rect x="640.5" y="560.5" width="79" height="79" stroke="black" stroke-opacity="0.5"/>
<rect x="640.5" y="640.5" width="79" height="79" stroke="black" stroke-opacity="0.5"/>
<rect x="560.5" y="640.5" width="79" height="79" stroke="black" stroke-opacity="0.5"/>
<rect x="480.5" y="640.5" width="79" height="79" stroke="black" stroke-opacity="0.5"/>
<rect x="400.5" y="640.5" width="79" height="79" stroke="black" stroke-opacity="0.5"/>
<rect x="320.5" y="640.5" width="79" height="79" stroke="black" stroke-opacity="0.5"/>
<rect x="240.5" y="640.5" width="79" height="79" stroke="black" stroke-opacity="0.5"/>
<rect x="160.5" y="640.5" width="79" height="79" stroke="black" stroke-opacity="0.5"/>
<rect x="80.5" y="640.5" width="79" height="79" stroke="black" stroke-opacity="0.5"/>
<rect x="80.5" y="560.5" width="79" height="79" stroke="black" stroke-opacity="0.5"/>
<rect x="80.5" y="480.5" width="79" height="79" stroke="black" stroke-opacity="0.5"/>
<rect x="80.5" y="400.5" width="79" height="79" stroke="black" stroke-opacity="0.5"/>
<rect x="80.5" y="320.5" width="79" height="79" stroke="black" stroke-opacity="0.5"/>
<rect x="80.5" y="240.5" width="79" height="79" stroke="black" stroke-opacity="0.5"/>
<rect x="80.5" y="160.5" width="79" height="79" stroke="black" stroke-opacity="0.5"/>
<rect x="160.5" y="160.5" width="79" height="79" stroke="black" stroke-opacity="0.5"/>
<rect x="240.5" y="160.5" width="79" height="79" stroke="black" stroke-opacity="0.5"/>
<rect x="320.5" y="160.5" width="79" height="79" stroke="black" stroke-opacity="0.5"/>
<rect x="400.5" y="160.5" width="79" height="79" stroke="black" stroke-opacity="0.5"/>
<rect x="480.5" y="160.5" width="79" height="79" stroke="black" stroke-opacity="0.5"/>
<rect x="560.5" y="160.5" width="79" height="79" stroke="black" stroke-opacity="0.5"/>
<rect x="560.5" y="240.5" width="79" height="79" stroke="black" stroke-opacity="0.5"/>
<rect x="560.5" y="320.5" width="79" height="79" stroke="black" stroke-opacity="0.5"/>
<rect x="560.5" y="400.5" width="79" height="79" stroke="black" stroke-opacity="0.5"/>
<rect x="560.5" y="480.5" width="79" height="79" stroke="black" stroke-opacity="0.5"/>
<rect x="560.5" y="560.5" width="79" height="79" stroke="black" stroke-opacity="0.5"/>
<rect x="480.5" y="560.5" width="79" height="79" stroke="black" stroke-opacity="0.5"/>
<rect x="400.5" y="560.5" width="79" height="79" stroke="black" stroke-opacity="0.5"/>
<rect x="320.5" y="560.5" width="79" height="79" stroke="black" stroke-opacity="0.5"/>
<rect x="240.5" y="560.5" width="79" height="79" stroke="black" stroke-opacity="0.5"/>
<rect x="160.5" y="560.5" width="79" height="79" stroke="black" stroke-opacity="0.5"/>
<rect x="160.5" y="480.5" width="79" height="79" stroke="black" stroke-opacity="0.5"/>
<rect x="160.5" y="400.5" width="79" height="79" stroke="black" stroke-opacity="0.5"/>
<rect x="160.5" y="320.5" width="79" height="79" stroke="black" stroke-opacity="0.5"/>
<rect x="160.5" y="240.5" width="79" height="79" stroke="black" stroke-opacity="0.5"/>
<rect x="240.5" y="240.5" width="79" height="79" stroke="black" stroke-opacity="0.5"/>
<rect x="320.5" y="240.5" width="79" height="79" stroke="black" stroke-opacity="0.5"/>
<rect x="400.5" y="240.5" width="79" height="79" stroke="black" stroke-opacity="0.5"/>
<rect x="480.5" y="240.5" width="79" height="79" stroke="black" stroke-opacity="0.5"/>
<rect x="480.5" y="320.5" width="79" height="79" stroke="black" stroke-opacity="0.5"/>
<rect x="480.5" y="400.5" width="79" height="79" stroke="black" stroke-opacity="0.5"/>
<rect x="480.5" y="480.5" width="79" height="79" stroke="black" stroke-opacity="0.5"/>
<rect x="400.5" y="480.5" width="79" height="79" stroke="black" stroke-opacity="0.5"/>
<rect x="320.5" y="480.5" width="79" height="79" stroke="black" stroke-opacity="0.5"/>
<rect x="240.5" y="480.5" width="79" height="79" stroke="black" stroke-opacity="0.5"/>
<rect x="240.5" y="400.5" width="79" height="79" stroke="black" stroke-opacity="0.5"/>
<rect x="240.5" y="320.5" width="79" height="79" stroke="black" stroke-opacity="0.5"/>
<rect x="320.5" y="320.5" width="79" height="79" stroke="black" stroke-opacity="0.5"/>
<rect x="400.5" y="320.5" width="79" height="79" stroke="black" stroke-opacity="0.5"/>
<rect x="400.5" y="400.5" width="79" height="79" stroke="black" stroke-opacity="0.5"/>
<rect x="320.5" y="400.5" width="79" height="79" stroke="black" stroke-opacity="0.5"/>
</svg>
