<svg width="1260" height="1080" viewBox="0 0 1260 1080" fill="none" xmlns="http://www.w3.org/2000/svg">
<path fill-rule="evenodd" clip-rule="evenodd" d="M0 0H180V180H0V0ZM170 90C170 134.183 134.183 170 90 170C45.8172 170 10 134.183 10 90C10 45.8172 45.8172 10 90 10C134.183 10 170 45.8172 170 90Z" fill="#0016D8"/>
<path fill-rule="evenodd" clip-rule="evenodd" d="M180 0H360V180H180V0ZM350 90C350 134.183 314.183 170 270 170C225.817 170 190 134.183 190 90C190 45.8172 225.817 10 270 10C314.183 10 350 45.8172 350 90Z" fill="#0016D8"/>
<path fill-rule="evenodd" clip-rule="evenodd" d="M360 0H540V180H360V0ZM530 90C530 134.183 494.183 170 450 170C405.817 170 370 134.183 370 90C370 45.8172 405.817 10 450 10C494.183 10 530 45.8172 530 90Z" fill="#0016D8"/>
<path fill-rule="evenodd" clip-rule="evenodd" d="M540 0H720V180H540V0ZM710 90C710 134.183 674.183 170 630 170C585.817 170 550 134.183 550 90C550 45.8172 585.817 10 630 10C674.183 10 710 45.8172 710 90Z" fill="#0016D8"/>
<path fill-rule="evenodd" clip-rule="evenodd" d="M720 0H900V180H720V0ZM890 90C890 134.183 854.183 170 810 170C765.817 170 730 134.183 730 90C730 45.8172 765.817 10 810 10C854.183 10 890 45.8172 890 90Z" fill="#0016D8"/>
<path fill-rule="evenodd" clip-rule="evenodd" d="M900 0H1080V180H900V0ZM1070 90C1070 134.183 1034.18 170 990 170C945.817 170 910 134.183 910 90C910 45.8172 945.817 10 990 10C1034.18 10 1070 45.8172 1070 90Z" fill="#0016D8"/>
<path fill-rule="evenodd" clip-rule="evenodd" d="M1080 0H1260V180H1080V0ZM1250 90C1250 134.183 1214.18 170 1170 170C1125.82 170 1090 134.183 1090 90C1090 45.8172 1125.82 10 1170 10C1214.18 10 1250 45.8172 1250 90Z" fill="#0016D8"/>
<path fill-rule="evenodd" clip-rule="evenodd" d="M1080 180H1260V360H1080V180ZM1250 270C1250 314.183 1214.18 350 1170 350C1125.82 350 1090 314.183 1090 270C1090 225.817 1125.82 190 1170 190C1214.18 190 1250 225.817 1250 270Z" fill="#0016D8"/>
<path fill-rule="evenodd" clip-rule="evenodd" d="M1080 360H1260V540H1080V360ZM1250 450C1250 494.183 1214.18 530 1170 530C1125.82 530 1090 494.183 1090 450C1090 405.817 1125.82 370 1170 370C1214.18 370 1250 405.817 1250 450Z" fill="#0016D8"/>
<path fill-rule="evenodd" clip-rule="evenodd" d="M1080 540H1260V720H1080V540ZM1250 630C1250 674.183 1214.18 710 1170 710C1125.82 710 1090 674.183 1090 630C1090 585.817 1125.82 550 1170 550C1214.18 550 1250 585.817 1250 630Z" fill="#0016D8"/>
<path fill-rule="evenodd" clip-rule="evenodd" d="M1080 720H1260V900H1080V720ZM1250 810C1250 854.183 1214.18 890 1170 890C1125.82 890 1090 854.183 1090 810C1090 765.817 1125.82 730 1170 730C1214.18 730 1250 765.817 1250 810Z" fill="#0016D8"/>
<path fill-rule="evenodd" clip-rule="evenodd" d="M1080 900H1260V1080H1080V900ZM1250 990C1250 1034.18 1214.18 1070 1170 1070C1125.82 1070 1090 1034.18 1090 990C1090 945.817 1125.82 910 1170 910C1214.18 910 1250 945.817 1250 990Z" fill="#0016D8"/>
<path fill-rule="evenodd" clip-rule="evenodd" d="M900 900H1080V1080H900V900ZM1070 990C1070 1034.18 1034.18 1070 990 1070C945.817 1070 910 1034.18 910 990C910 945.817 945.817 910 990 910C1034.18 910 1070 945.817 1070 990Z" fill="#0016D8"/>
<path fill-rule="evenodd" clip-rule="evenodd" d="M720 900H900V1080H720V900ZM890 990C890 1034.18 854.183 1070 810 1070C765.817 1070 730 1034.18 730 990C730 945.817 765.817 910 810 910C854.183 910 890 945.817 890 990Z" fill="#0016D8"/>
<path fill-rule="evenodd" clip-rule="evenodd" d="M540 900H720V1080H540V900ZM710 990C710 1034.18 674.183 1070 630 1070C585.817 1070 550 1034.18 550 990C550 945.817 585.817 910 630 910C674.183 910 710 945.817 710 990Z" fill="#0016D8"/>
<path fill-rule="evenodd" clip-rule="evenodd" d="M360 900H540V1080H360V900ZM530 990C530 1034.18 494.183 1070 450 1070C405.817 1070 370 1034.18 370 990C370 945.817 405.817 910 450 910C494.183 910 530 945.817 530 990Z" fill="#0016D8"/>
<path fill-rule="evenodd" clip-rule="evenodd" d="M180 900H360V1080H180V900ZM350 990C350 1034.18 314.183 1070 270 1070C225.817 1070 190 1034.18 190 990C190 945.817 225.817 910 270 910C314.183 910 350 945.817 350 990Z" fill="#0016D8"/>
<path fill-rule="evenodd" clip-rule="evenodd" d="M0 900H180V1080H0V900ZM170 990C170 1034.18 134.183 1070 90 1070C45.8172 1070 10 1034.18 10 990C10 945.817 45.8172 910 90 910C134.183 910 170 945.817 170 990Z" fill="#0016D8"/>
<path fill-rule="evenodd" clip-rule="evenodd" d="M0 720H180V900H0V720ZM170 810C170 854.183 134.183 890 90 890C45.8172 890 10 854.183 10 810C10 765.817 45.8172 730 90 730C134.183 730 170 765.817 170 810Z" fill="#0016D8"/>
<path fill-rule="evenodd" clip-rule="evenodd" d="M0 540H180V720H0V540ZM170 630C170 674.183 134.183 710 90 710C45.8172 710 10 674.183 10 630C10 585.817 45.8172 550 90 550C134.183 550 170 585.817 170 630Z" fill="#0016D8"/>
<path fill-rule="evenodd" clip-rule="evenodd" d="M0 360H180V540H0V360ZM170 450C170 494.183 134.183 530 90 530C45.8172 530 10 494.183 10 450C10 405.817 45.8172 370 90 370C134.183 370 170 405.817 170 450Z" fill="#0016D8"/>
<path fill-rule="evenodd" clip-rule="evenodd" d="M0 180H180V360H0V180ZM170 270C170 314.183 134.183 350 90 350C45.8172 350 10 314.183 10 270C10 225.817 45.8172 190 90 190C134.183 190 170 225.817 170 270Z" fill="#0016D8"/>
<path fill-rule="evenodd" clip-rule="evenodd" d="M180 180H360V360H180V180ZM350 270C350 314.183 314.183 350 270 350C225.817 350 190 314.183 190 270C190 225.817 225.817 190 270 190C314.183 190 350 225.817 350 270Z" fill="#0016D8"/>
<path fill-rule="evenodd" clip-rule="evenodd" d="M360 180H540V360H360V180ZM530 270C530 314.183 494.183 350 450 350C405.817 350 370 314.183 370 270C370 225.817 405.817 190 450 190C494.183 190 530 225.817 530 270Z" fill="#0016D8"/>
<path fill-rule="evenodd" clip-rule="evenodd" d="M540 180H720V360H540V180ZM710 270C710 314.183 674.183 350 630 350C585.817 350 550 314.183 550 270C550 225.817 585.817 190 630 190C674.183 190 710 225.817 710 270Z" fill="#0016D8"/>
<path fill-rule="evenodd" clip-rule="evenodd" d="M720 180H900V360H720V180ZM890 270C890 314.183 854.183 350 810 350C765.817 350 730 314.183 730 270C730 225.817 765.817 190 810 190C854.183 190 890 225.817 890 270Z" fill="#0016D8"/>
<path fill-rule="evenodd" clip-rule="evenodd" d="M900 180H1080V360H900V180ZM1070 270C1070 314.183 1034.18 350 990 350C945.817 350 910 314.183 910 270C910 225.817 945.817 190 990 190C1034.18 190 1070 225.817 1070 270Z" fill="#0016D8"/>
<path fill-rule="evenodd" clip-rule="evenodd" d="M900 360H1080V540H900V360ZM1070 450C1070 494.183 1034.18 530 990 530C945.817 530 910 494.183 910 450C910 405.817 945.817 370 990 370C1034.18 370 1070 405.817 1070 450Z" fill="#0016D8"/>
<path fill-rule="evenodd" clip-rule="evenodd" d="M900 540H1080V720H900V540ZM1070 630C1070 674.183 1034.18 710 990 710C945.817 710 910 674.183 910 630C910 585.817 945.817 550 990 550C1034.18 550 1070 585.817 1070 630Z" fill="#0016D8"/>
<path fill-rule="evenodd" clip-rule="evenodd" d="M900 720H1080V900H900V720ZM1070 810C1070 854.183 1034.18 890 990 890C945.817 890 910 854.183 910 810C910 765.817 945.817 730 990 730C1034.18 730 1070 765.817 1070 810Z" fill="#0016D8"/>
<path fill-rule="evenodd" clip-rule="evenodd" d="M720 720H900V900H720V720ZM890 810C890 854.183 854.183 890 810 890C765.817 890 730 854.183 730 810C730 765.817 765.817 730 810 730C854.183 730 890 765.817 890 810Z" fill="#0016D8"/>
<path fill-rule="evenodd" clip-rule="evenodd" d="M540 720H720V900H540V720ZM710 810C710 854.183 674.183 890 630 890C585.817 890 550 854.183 550 810C550 765.817 585.817 730 630 730C674.183 730 710 765.817 710 810Z" fill="#0016D8"/>
<path fill-rule="evenodd" clip-rule="evenodd" d="M360 720H540V900H360V720ZM530 810C530 854.183 494.183 890 450 890C405.817 890 370 854.183 370 810C370 765.817 405.817 730 450 730C494.183 730 530 765.817 530 810Z" fill="#0016D8"/>
<path fill-rule="evenodd" clip-rule="evenodd" d="M180 720H360V900H180V720ZM350 810C350 854.183 314.183 890 270 890C225.817 890 190 854.183 190 810C190 765.817 225.817 730 270 730C314.183 730 350 765.817 350 810Z" fill="#0016D8"/>
<path fill-rule="evenodd" clip-rule="evenodd" d="M180 540H360V720H180V540ZM350 630C350 674.183 314.183 710 270 710C225.817 710 190 674.183 190 630C190 585.817 225.817 550 270 550C314.183 550 350 585.817 350 630Z" fill="#0016D8"/>
<path fill-rule="evenodd" clip-rule="evenodd" d="M180 360H360V540H180V360ZM350 450C350 494.183 314.183 530 270 530C225.817 530 190 494.183 190 450C190 405.817 225.817 370 270 370C314.183 370 350 405.817 350 450Z" fill="#0016D8"/>
<path fill-rule="evenodd" clip-rule="evenodd" d="M360 360H540V540H360V360ZM530 450C530 494.183 494.183 530 450 530C405.817 530 370 494.183 370 450C370 405.817 405.817 370 450 370C494.183 370 530 405.817 530 450Z" fill="#0016D8"/>
<path fill-rule="evenodd" clip-rule="evenodd" d="M540 360H720V540H540V360ZM710 450C710 494.183 674.183 530 630 530C585.817 530 550 494.183 550 450C550 405.817 585.817 370 630 370C674.183 370 710 405.817 710 450Z" fill="#0016D8"/>
<path fill-rule="evenodd" clip-rule="evenodd" d="M720 360H900V540H720V360ZM890 450C890 494.183 854.183 530 810 530C765.817 530 730 494.183 730 450C730 405.817 765.817 370 810 370C854.183 370 890 405.817 890 450Z" fill="#0016D8"/>
<path fill-rule="evenodd" clip-rule="evenodd" d="M720 540H900V720H720V540ZM890 630C890 674.183 854.183 710 810 710C765.817 710 730 674.183 730 630C730 585.817 765.817 550 810 550C854.183 550 890 585.817 890 630Z" fill="#0016D8"/>
<path fill-rule="evenodd" clip-rule="evenodd" d="M540 540H720V720H540V540ZM710 630C710 674.183 674.183 710 630 710C585.817 710 550 674.183 550 630C550 585.817 585.817 550 630 550C674.183 550 710 585.817 710 630Z" fill="#0016D8"/>
<path fill-rule="evenodd" clip-rule="evenodd" d="M360 540H540V720H360V540ZM530 630C530 674.183 494.183 710 450 710C405.817 710 370 674.183 370 630C370 585.817 405.817 550 450 550C494.183 550 530 585.817 530 630Z" fill="#0016D8"/>
</svg>
