<svg width="100" height="100" viewBox="0 0 100 100" fill="none" xmlns="http://www.w3.org/2000/svg">
<rect width="100" height="100" rx="50" fill="black"/>
<rect width="100" height="100" rx="50" fill="black"/>
<circle cx="50" cy="50" r="30" fill="white"/>
<path d="M49.8892 63.358C47.9205 63.358 46.169 63.0384 44.6349 62.3991C43.1094 61.7514 41.9119 60.8693 41.0426 59.7528C40.1733 58.6364 39.7386 57.3707 39.7386 55.956C39.7386 54.8651 39.9858 53.8636 40.4801 52.9517C40.983 52.0312 41.6648 51.2685 42.5256 50.6634C43.3864 50.0497 44.3494 49.6577 45.4148 49.4872V49.3082C44.017 49.027 42.8835 48.3494 42.0142 47.2756C41.1449 46.1932 40.7102 44.9361 40.7102 43.5043C40.7102 42.1491 41.1065 40.9432 41.8991 39.8864C42.6918 38.821 43.7784 37.9858 45.1591 37.3807C46.5483 36.767 48.125 36.4602 49.8892 36.4602C51.6534 36.4602 53.2259 36.767 54.6065 37.3807C55.9957 37.9943 57.0866 38.8338 57.8793 39.8991C58.6719 40.956 59.0724 42.1577 59.081 43.5043C59.0724 44.9446 58.6293 46.2017 57.7514 47.2756C56.8736 48.3494 55.7486 49.027 54.3764 49.3082V49.4872C55.4247 49.6577 56.375 50.0497 57.2273 50.6634C58.0881 51.2685 58.7699 52.0312 59.2727 52.9517C59.7841 53.8636 60.044 54.8651 60.0526 55.956C60.044 57.3707 59.6051 58.6364 58.7358 59.7528C57.8665 60.8693 56.6648 61.7514 55.1307 62.3991C53.6051 63.0384 51.858 63.358 49.8892 63.358ZM49.8892 59.2926C50.767 59.2926 51.5341 59.1349 52.1903 58.8196C52.8466 58.4957 53.358 58.0526 53.7244 57.4901C54.0994 56.919 54.2869 56.2628 54.2869 55.5213C54.2869 54.7628 54.0952 54.0938 53.7116 53.5142C53.3281 52.9261 52.8082 52.4659 52.152 52.1335C51.4957 51.7926 50.7415 51.6222 49.8892 51.6222C49.0455 51.6222 48.2912 51.7926 47.6264 52.1335C46.9616 52.4659 46.4375 52.9261 46.054 53.5142C45.679 54.0938 45.4915 54.7628 45.4915 55.5213C45.4915 56.2628 45.6747 56.919 46.0412 57.4901C46.4077 58.0526 46.9233 58.4957 47.5881 58.8196C48.2528 59.1349 49.0199 59.2926 49.8892 59.2926ZM49.8892 47.5952C50.6222 47.5952 51.2741 47.446 51.8452 47.1477C52.4162 46.8494 52.8636 46.4361 53.1875 45.9077C53.5114 45.3793 53.6733 44.7699 53.6733 44.0795C53.6733 43.3977 53.5114 42.8011 53.1875 42.2898C52.8636 41.7699 52.4205 41.3651 51.858 41.0753C51.2955 40.777 50.6392 40.6278 49.8892 40.6278C49.1477 40.6278 48.4915 40.777 47.9205 41.0753C47.3494 41.3651 46.902 41.7699 46.5781 42.2898C46.2628 42.8011 46.1051 43.3977 46.1051 44.0795C46.1051 44.7699 46.267 45.3793 46.5909 45.9077C46.9148 46.4361 47.3622 46.8494 47.9332 47.1477C48.5043 47.446 49.1562 47.5952 49.8892 47.5952Z" fill="black"/>
</svg>
