<svg width="300" height="200" viewBox="0 0 300 200" fill="none" xmlns="http://www.w3.org/2000/svg">
<g clip-path="url(#clip0_17_10)">
<rect width="300" height="200" rx="8" fill="url(#paint0_linear_17_10)" fill-opacity="0.3"/>
<g filter="url(#filter0_d_17_10)">
<path fill-rule="evenodd" clip-rule="evenodd" d="M165.85 64.3501C165.85 73.3799 158.53 80.7001 149.5 80.7001C140.47 80.7001 133.15 73.3799 133.15 64.3501C133.15 55.3202 140.47 48 149.5 48C158.53 48 165.85 55.3202 165.85 64.3501ZM144.05 84.1048C119.178 85.3342 99.212 94.889 95.5 107.107C94.8311 109.309 94.8334 113.146 95.5073 115.346C96.1619 117.483 97.324 119.574 98.9703 121.576C100.436 123.358 101.047 126.253 100.021 128.322L99.8893 128.588C99.6441 128.044 99.3358 127.538 98.9758 127.1C97.3265 125.091 96.1628 122.992 95.5083 120.847C94.9916 119.154 94.9945 120.584 95.0015 124.139C95.0024 124.584 95.0033 125.063 95.0033 125.572L95.0036 125.578C95.0037 127.394 95.2412 129.211 95.7164 130.511C95.8127 130.774 95.892 131.031 95.9697 131.283C96.1385 131.829 96.3004 132.354 96.6156 132.877V135.618C96.6129 135.681 96.6128 135.744 96.6156 135.807V135.831H96.6167C96.6179 135.852 96.6194 135.874 96.6212 135.896C96.6545 136.295 96.7964 136.677 97.0313 137.002C97.2662 137.326 97.5853 137.58 97.9541 137.736C98.323 137.892 98.7274 137.944 99.1238 137.887L117.434 135.248C119.72 134.919 123.367 135.194 125.611 135.739C131.784 137.237 138.471 138.142 145.318 138.404C147.626 138.492 151.372 138.492 153.68 138.405C179.139 137.444 199.723 127.772 203.498 115.347C204.167 113.146 204.167 109.309 203.498 107.107C199.786 94.89 179.823 85.3348 154.95 84.1048V111.22C154.95 111.578 154.809 111.932 154.535 112.263C154.261 112.594 153.86 112.894 153.354 113.147C152.848 113.4 152.247 113.601 151.586 113.738C150.925 113.875 150.216 113.945 149.5 113.945C148.784 113.945 148.076 113.875 147.414 113.738C146.753 113.601 146.152 113.4 145.646 113.147C145.14 112.894 144.739 112.594 144.465 112.263C144.191 111.932 144.05 111.578 144.05 111.22V84.1048ZM182.2 107.267C183.274 107.267 184.337 107.373 185.329 107.578C186.321 107.783 187.222 108.085 187.981 108.464C188.74 108.844 189.342 109.294 189.753 109.79C190.164 110.286 190.375 110.818 190.375 111.355C190.375 112.439 189.514 113.478 187.981 114.245C186.448 115.011 184.368 115.442 182.2 115.442C180.032 115.442 177.953 115.011 176.42 114.245C174.886 113.478 174.025 112.439 174.025 111.355C174.025 110.818 174.236 110.286 174.647 109.79C175.058 109.294 175.66 108.844 176.419 108.464C177.178 108.085 178.08 107.783 179.072 107.578C180.063 107.373 181.127 107.267 182.2 107.267ZM203.497 120.848C199.728 133.3 179.142 142.993 153.68 143.957C151.372 144.044 147.626 144.045 145.319 143.956C138.471 143.693 131.785 142.787 125.612 141.286C123.368 140.74 119.722 140.464 117.436 140.794L99.1271 143.438C98.3518 143.521 97.4412 143.184 96.9186 142.584C96.7134 142.349 96.6156 142.361 96.6156 142.675V149.434C96.6156 149.543 96.6228 149.649 96.6339 149.755V149.755C96.6339 151.299 98.3722 152.434 99.9004 152.214L116.575 149.806C119.32 149.41 123.699 149.742 126.399 150.372C132.098 151.7 138.215 152.527 144.479 152.816C147.249 152.944 151.748 152.944 154.518 152.818C179.081 151.7 198.95 142.459 203.29 130.512C203.763 129.212 203.998 127.394 203.996 125.578V125.572C203.996 125.052 203.997 124.564 203.998 124.111V124.106C204.006 120.575 204.009 119.159 203.497 120.848Z" fill="url(#paint1_linear_17_10)" shape-rendering="crispEdges"/>
</g>
</g>
<rect x="0.5" y="0.5" width="299" height="199" rx="7.5" stroke="url(#paint2_linear_17_10)"/>
<defs>
<filter id="filter0_d_17_10" x="15" y="-31" width="269" height="264.913" filterUnits="userSpaceOnUse" color-interpolation-filters="sRGB">
<feFlood flood-opacity="0" result="BackgroundImageFix"/>
<feColorMatrix in="SourceAlpha" type="matrix" values="0 0 0 0 0 0 0 0 0 0 0 0 0 0 0 0 0 0 127 0" result="hardAlpha"/>
<feOffset dy="1"/>
<feGaussianBlur stdDeviation="40"/>
<feComposite in2="hardAlpha" operator="out"/>
<feColorMatrix type="matrix" values="0 0 0 0 0 0 0 0 0 0 0 0 0 0 0 0 0 0 0.15 0"/>
<feBlend mode="normal" in2="BackgroundImageFix" result="effect1_dropShadow_17_10"/>
<feBlend mode="normal" in="SourceGraphic" in2="effect1_dropShadow_17_10" result="shape"/>
</filter>
<linearGradient id="paint0_linear_17_10" x1="47" y1="44" x2="300" y2="219" gradientUnits="userSpaceOnUse">
<stop stop-color="white"/>
<stop offset="1" stop-color="white" stop-opacity="0"/>
</linearGradient>
<linearGradient id="paint1_linear_17_10" x1="161" y1="129" x2="117.5" y2="-80" gradientUnits="userSpaceOnUse">
<stop stop-color="white"/>
<stop offset="1" stop-color="white" stop-opacity="0"/>
</linearGradient>
<linearGradient id="paint2_linear_17_10" x1="351.5" y1="294" x2="11.5" y2="12" gradientUnits="userSpaceOnUse">
<stop stop-color="white" stop-opacity="0"/>
<stop offset="1" stop-color="white"/>
</linearGradient>
<clipPath id="clip0_17_10">
<rect width="300" height="200" rx="8" fill="white"/>
</clipPath>
</defs>
</svg>
