<!--
  thumbnail_overlay.svg - Arcadecord

  Copyright (C) 2022 Ken Zhou

  This file is part of Arcadecord.

  Arcadecord can not be copied and/or distributed
  without the express permission of Ken Zhou.
-->

<svg width="300" height="200" viewBox="0 0 300 200" fill="none" xmlns="http://www.w3.org/2000/svg">
<g filter="url(#filter0_d_14_53)">
<rect x="256" y="8" width="36" height="24" rx="12" fill="url(#paint0_linear_14_53)"/>
</g>
<path fill-rule="evenodd" clip-rule="evenodd" d="M266 23.0094C266 23.0097 266.001 23.01 266.001 23.0103C266.001 23.2768 266.035 23.5435 266.105 23.7343C266.15 23.857 266.17 23.9694 266.237 24.0817V24.5152H266.313V24.5696L266.567 24.5703L266.738 24.2244C266.888 23.9205 266.799 23.4953 266.584 23.2336C266.342 22.9388 266.171 22.6306 266.075 22.3158C265.989 22.0362 266 22.3369 266 23.0094V23.0094ZM281.926 22.316C281.373 24.1438 278.351 25.5667 274.614 25.7081C274.275 25.7209 273.725 25.7209 273.386 25.7079C272.381 25.6694 271.4 25.5363 270.493 25.316C270.164 25.2359 269.629 25.1954 269.293 25.2439L266.606 25.632C266.492 25.6442 266.358 25.5947 266.282 25.5066C266.252 25.472 266.237 25.4738 266.237 25.5199V26.512C266.237 26.528 266.238 26.5437 266.24 26.5591V26.5592C266.24 26.7858 266.495 26.9525 266.719 26.9201L269.167 26.5667C269.57 26.5085 270.213 26.5573 270.609 26.6497C271.446 26.8447 272.343 26.9662 273.263 27.0085C273.67 27.0273 274.33 27.0273 274.737 27.0088C278.342 26.8447 281.259 25.4882 281.896 23.7346C281.965 23.5437 282 23.2768 281.999 23.0102V23.0094C281.999 22.3369 282.011 22.0361 281.926 22.316V22.316Z" fill="white"/>
<path fill-rule="evenodd" clip-rule="evenodd" d="M273.2 16.9225C269.549 17.1029 266.618 18.5055 266.073 20.299C265.975 20.6221 265.976 21.1853 266.074 21.5083C266.171 21.822 266.341 22.129 266.583 22.4228C266.798 22.6844 266.888 23.1093 266.737 23.413L266.27 24.3547C266.244 24.4074 266.233 24.4662 266.238 24.5248C266.243 24.5834 266.264 24.6395 266.298 24.6871C266.333 24.7347 266.379 24.772 266.434 24.7949C266.488 24.8178 266.547 24.8255 266.605 24.8171L269.293 24.4298C269.629 24.3814 270.164 24.4218 270.493 24.5017C271.4 24.7217 272.381 24.8544 273.386 24.8929C273.725 24.9059 274.275 24.9059 274.614 24.8932C278.351 24.752 281.372 23.3324 281.926 21.5085C282.025 21.1853 282.025 20.6221 281.926 20.299C281.381 18.5056 278.451 17.103 274.8 16.9225V20.9027C274.8 20.9552 274.779 21.0072 274.739 21.0558C274.699 21.1043 274.64 21.1484 274.566 21.1856C274.491 21.2227 274.403 21.2522 274.306 21.2723C274.209 21.2924 274.105 21.3027 274 21.3027C273.895 21.3027 273.791 21.2924 273.694 21.2723C273.597 21.2522 273.509 21.2227 273.434 21.1856C273.36 21.1484 273.301 21.1043 273.261 21.0558C273.221 21.0072 273.2 20.9552 273.2 20.9027V16.9225ZM278.8 20.3224C278.958 20.3224 279.114 20.3379 279.259 20.3681C279.405 20.3982 279.537 20.4424 279.649 20.4981C279.76 20.5539 279.848 20.62 279.909 20.6928C279.969 20.7656 280 20.8436 280 20.9224C280 21.0815 279.874 21.2342 279.649 21.3467C279.423 21.4592 279.118 21.5224 278.8 21.5224C278.482 21.5224 278.177 21.4592 277.951 21.3467C277.726 21.2342 277.6 21.0815 277.6 20.9224C277.6 20.8436 277.631 20.7656 277.691 20.6928C277.752 20.62 277.84 20.5539 277.951 20.4981C278.063 20.4424 278.195 20.3982 278.341 20.3681C278.486 20.3379 278.642 20.3224 278.8 20.3224V20.3224Z" fill="white"/>
<path d="M274 16.4227C275.325 16.4227 276.4 15.3482 276.4 14.0227C276.4 12.6972 275.325 11.6227 274 11.6227C272.675 11.6227 271.6 12.6972 271.6 14.0227C271.6 15.3482 272.675 16.4227 274 16.4227Z" fill="white"/>
<defs>
<filter id="filter0_d_14_53" x="252" y="6" width="44" height="32" filterUnits="userSpaceOnUse" color-interpolation-filters="sRGB">
<feFlood flood-opacity="0" result="BackgroundImageFix"/>
<feColorMatrix in="SourceAlpha" type="matrix" values="0 0 0 0 0 0 0 0 0 0 0 0 0 0 0 0 0 0 127 0" result="hardAlpha"/>
<feOffset dy="2"/>
<feGaussianBlur stdDeviation="2"/>
<feComposite in2="hardAlpha" operator="out"/>
<feColorMatrix type="matrix" values="0 0 0 0 0 0 0 0 0 0 0 0 0 0 0 0 0 0 0.25 0"/>
<feBlend mode="normal" in2="BackgroundImageFix" result="effect1_dropShadow_14_53"/>
<feBlend mode="normal" in="SourceGraphic" in2="effect1_dropShadow_14_53" result="shape"/>
</filter>
<linearGradient id="paint0_linear_14_53" x1="274" y1="8" x2="274" y2="32" gradientUnits="userSpaceOnUse">
<stop stop-color="#2979FF"/>
<stop offset="1" stop-color="#AA00FF"/>
</linearGradient>
</defs>
</svg>
